<svg width="588" height="385" viewBox="0 0 588 385" fill="none" xmlns="http://www.w3.org/2000/svg">
<g clip-path="url(#clip0)">
<path d="M137.957 64.7204C162.915 26.9187 175.381 8.02416 190.857 2.34451C230.99 -12.4 253.114 46.7787 328.376 55.7934C371.481 60.959 378.354 43.2555 445.477 48.4337C476.015 50.8033 498.064 52.7592 522.444 66.6386C535.964 74.3494 575.006 99.8514 585.453 147.796C597.506 203.176 562.54 247.748 555.692 256.073C506.416 315.941 413.42 320.631 355.578 308.732C300.521 297.448 294.125 274.667 234.79 270.479C188.788 267.244 180.862 280.121 128.939 276.309C86.7746 273.225 40.007 269.802 15.1621 235.022C-10.1594 199.578 3.24755 153.94 5.68062 145.615C18.611 101.757 57.6028 64.4445 75.0356 71.4657C91.7661 78.1484 113.35 102.046 137.957 64.7204Z" fill="white"/>
<path d="M44.0961 84.4173C44.0961 84.4173 183.872 185.786 294.125 49.0605C293.987 49.0605 404.015 177.661 530.81 71.6287" stroke="#B91D34" stroke-linecap="round" stroke-linejoin="round"/>
<path d="M58.7448 93.6702C58.7448 93.6702 52.5743 113.555 47.5577 111.048L62.6076 118.57C62.6076 118.57 72.1643 110.822 73.0297 100.303L58.7448 93.6702ZM92.9833 109.167C92.9833 109.167 90.3496 129.829 84.9693 128.225L101.098 133.039C101.098 133.039 109.175 123.736 108.196 113.204L92.9833 109.167ZM166.903 119.887C166.903 119.887 171.406 140.236 165.8 140.537L182.606 139.609C182.606 139.609 187.058 128.137 182.606 118.558L166.903 119.887ZM208.466 112.138C208.466 112.138 218.061 130.632 212.73 132.375L228.721 127.146C228.721 127.146 230.063 114.909 223.265 106.81L208.466 112.138ZM247.069 92.1406C247.069 92.1406 260.79 107.813 256.024 110.772L270.309 101.895C270.309 101.895 268.704 89.6957 260.175 83.4393L247.069 92.1406ZM276.229 69.8608C276.229 69.8608 293.222 81.9097 289.284 85.9093L301.111 73.9732C301.111 73.9732 296.709 62.4886 286.952 58.3887L276.229 69.8608ZM130.433 118.445C130.433 118.445 128.426 138.004 127.172 138.004C125.918 138.004 139.713 141.765 144.73 139.258C144.73 139.258 147.978 124.877 145.733 120.163C145.758 120.163 136.214 120.188 130.433 118.445ZM326.558 78.186C326.558 78.186 318.406 97.3563 313.665 94.3473L327.875 103.362C327.875 103.362 338.171 96.6041 340.09 86.2102L326.558 78.186ZM394.772 108.603C394.772 108.603 393.518 129.403 388.1 128.174L404.516 131.861C404.516 131.861 411.929 122.031 410.223 111.587L394.772 108.603ZM436.874 112.439C436.874 112.439 441.075 132.851 435.469 133.077L452.287 132.4C452.287 132.4 456.903 120.99 452.576 111.349L436.874 112.439ZM478.173 103.688C478.173 103.688 486.263 121.416 480.87 122.959L498.428 117.944C498.428 117.944 498.666 104.967 492.157 96.6291L478.173 103.688ZM510.969 86.5989C510.969 86.5989 522.897 102.647 518.018 105.406L532.666 97.1056C532.666 97.1056 531.55 84.8561 523.273 78.2988L510.969 86.5989ZM360.094 97.3062C360.094 97.3062 352.833 115.586 351.629 115.248C350.425 114.909 362.678 122.269 368.183 121.228C368.183 121.228 375.232 108.264 374.341 103.111C374.341 103.111 365.161 100.553 360.094 97.3062Z" fill="#FECB5C"/>
<path d="M398.058 233.919H190.306C150.436 286.377 87.465 259.095 87.465 259.095C87.465 259.095 132.615 310.5 153.559 314.688H434.779C455.774 310.5 500.886 259.095 500.886 259.095C500.886 259.095 437.927 286.377 398.045 233.919H398.058Z" fill="#B9151C"/>
<path d="M418.977 378.731H173.162L153.722 281.562H433.4L418.977 378.731Z" fill="#FECB5C"/>
<path d="M270.986 314.788H316.136V381.239H270.986V314.788ZM368.397 35.8208H219.979C191.485 73.2965 146.511 53.8126 146.511 53.8126C146.511 53.8126 178.743 90.536 193.742 93.5326H394.634C409.684 90.536 441.865 53.8126 441.865 53.8126C441.865 53.8126 396.891 73.2965 368.397 35.8208ZM387.535 124.84H200.828C164.997 171.982 108.41 147.47 108.41 147.47C108.41 147.47 148.969 193.66 167.819 197.434H420.545C439.357 193.672 479.954 147.47 479.954 147.47C479.954 147.47 423.379 171.982 387.535 124.84Z" fill="#B9151C"/>
<path d="M387.623 125.479H200.753L193.855 67.1777H394.521L387.623 125.479ZM398.283 233.919H188.839L167.518 166.214H418.35L398.283 233.919Z" fill="#FECB5C"/>
<path d="M220.82 89.1064H234.616V109.167H220.82V89.1064ZM243.395 89.1064H257.19V109.167H243.395V89.1064ZM265.969 89.1064H279.765V109.167H265.969V89.1064ZM287.29 89.1064H301.086V109.167H287.29V89.1064ZM307.357 89.1064H321.152V109.167H307.357V89.1064ZM328.677 89.1064H342.473V109.167H328.677V89.1064ZM349.998 89.1064H363.794V109.167H349.998V89.1064ZM210.786 193.171H226.764V216.403H210.786V193.171ZM236.923 193.171H252.901V216.403H236.923V193.171ZM263.06 193.171H279.038V216.403H263.06V193.171ZM169.399 318.549H185.377V341.782H169.399V318.549ZM402.673 318.549H418.651V341.782H402.673V318.549ZM212.893 318.549H228.871V341.782H212.893V318.549ZM241.739 318.549H257.717V341.782H241.739V318.549ZM329.53 318.549H345.508V341.782H329.53V318.549ZM358.376 318.549H374.354V341.782H358.376V318.549ZM287.754 193.171H303.732V216.403H287.754V193.171ZM310.981 193.171H326.959V216.403H310.981V193.171ZM335.676 193.171H351.654V216.403H335.676V193.171ZM360.357 193.171H376.335V216.403H360.357V193.171Z" fill="#EE1C25"/>
<path d="M145.57 378.731H444.06M198.935 289.95V378.731V289.95ZM293.95 314.788V381.238V314.788ZM392.075 286.189V374.97V286.189Z" stroke="#EE1C25" stroke-width="8" stroke-miterlimit="10"/>
<path d="M441.138 78.4619V83.6902" stroke="#FBAC39" stroke-miterlimit="10"/>
<path d="M434.566 58.5894H447.622V59.9434H434.566V58.5894ZM434.566 75.1644H447.622V76.5185H434.566V75.1644Z" fill="#FBAC39"/>
<path d="M445.829 59.9434H436.36C435.069 60.7505 434.005 61.8725 433.267 63.2037C432.529 64.535 432.142 66.0319 432.142 67.5538C432.142 69.0757 432.529 70.5727 433.267 71.9039C434.005 73.2352 435.069 74.3572 436.36 75.1643H445.829C447.119 74.3572 448.183 73.2352 448.921 71.9039C449.659 70.5727 450.046 69.0757 450.046 67.5538C450.046 66.0319 449.659 64.535 448.921 63.2037C448.183 61.8725 447.119 60.7505 445.829 59.9434Z" fill="#B91D34"/>
<path d="M441.138 78.4621C441.671 78.4621 442.104 78.0299 442.104 77.4967C442.104 76.9635 441.671 76.5312 441.138 76.5312C440.605 76.5312 440.172 76.9635 440.172 77.4967C440.172 78.0299 440.605 78.4621 441.138 78.4621Z" fill="#B91D34"/>
<path d="M439.884 83.6899H442.003C442.003 83.6899 443.847 93.1936 443.257 96.0021L442.58 95.4254L438.993 96.0021C438.993 96.0021 441.238 84.2792 439.884 83.6899Z" fill="#B91D34"/>
<path d="M439.533 59.9434C439.533 59.9434 435.507 68.3813 439.533 75.1643H443.157C447.183 68.3813 443.157 59.9434 443.157 59.9434H439.533Z" fill="#D01D35"/>
<path d="M441.088 58.5893V54.0005" stroke="#FBAC39" stroke-miterlimit="10"/>
<path d="M442.643 91.9653C443.037 92.4646 443.245 93.085 443.232 93.7206C443.241 94.0401 443.184 94.3578 443.063 94.6536C442.942 94.9494 442.76 95.2167 442.53 95.4383C442.365 94.8766 442.285 94.2935 442.292 93.7081C442.282 93.1087 442.402 92.5142 442.643 91.9653Z" fill="#D33333"/>
<path d="M147.665 78.4619V83.6902" stroke="#FBAC39" stroke-miterlimit="10"/>
<path d="M141.093 58.5894H154.149V59.9434H141.093V58.5894ZM141.093 75.1644H154.149V76.5185H141.093V75.1644Z" fill="#FBAC39"/>
<path d="M152.355 59.9434H142.886C141.596 60.7505 140.532 61.8725 139.794 63.2037C139.056 64.535 138.669 66.0319 138.669 67.5538C138.669 69.0757 139.056 70.5727 139.794 71.9039C140.532 73.2352 141.596 74.3572 142.886 75.1643H152.355C153.646 74.3572 154.71 73.2352 155.448 71.9039C156.185 70.5727 156.572 69.0757 156.572 67.5538C156.572 66.0319 156.185 64.535 155.448 63.2037C154.71 61.8725 153.646 60.7505 152.355 59.9434Z" fill="#B91D34"/>
<path d="M147.665 78.4621C148.198 78.4621 148.63 78.0299 148.63 77.4967C148.63 76.9635 148.198 76.5312 147.665 76.5312C147.131 76.5312 146.699 76.9635 146.699 77.4967C146.699 78.0299 147.131 78.4621 147.665 78.4621Z" fill="#B91D34"/>
<path d="M146.41 83.6899H148.53C148.53 83.6899 150.374 93.1936 149.784 96.0021L149.107 95.4254L145.52 96.0021C145.52 96.0021 147.765 84.2792 146.41 83.6899Z" fill="#B91D34"/>
<path d="M146.059 59.9434C146.059 59.9434 142.033 68.3813 146.059 75.1643H149.684C153.71 68.3813 149.684 59.9434 149.684 59.9434H146.059Z" fill="#D01D35"/>
<path d="M147.614 58.5893V54.0005" stroke="#FBAC39" stroke-miterlimit="10"/>
<path d="M149.17 91.9653C149.563 92.4646 149.772 93.085 149.759 93.7206C149.768 94.0401 149.71 94.3578 149.589 94.6536C149.468 94.9494 149.287 95.2167 149.057 95.4383C148.892 94.8766 148.812 94.2935 148.818 93.7081C148.809 93.1087 148.928 92.5142 149.17 91.9653Z" fill="#D33333"/>
<path d="M478.299 181.473V188.62" stroke="#FBAC39" stroke-miterlimit="10"/>
<path d="M469.306 154.303H487.153V156.159H469.306V154.303ZM469.306 176.959H487.153V178.815H469.306V176.959Z" fill="#FBAC39"/>
<path d="M484.707 156.159H471.764C470.002 157.263 468.55 158.797 467.543 160.616C466.536 162.435 466.008 164.48 466.008 166.559C466.008 168.638 466.536 170.683 467.543 172.503C468.55 174.322 470.002 175.855 471.764 176.959H484.707C486.469 175.855 487.922 174.322 488.929 172.503C489.936 170.683 490.464 168.638 490.464 166.559C490.464 164.48 489.936 162.435 488.929 160.616C487.922 158.797 486.469 157.263 484.707 156.159Z" fill="#B91D34"/>
<path d="M478.299 181.461C479.026 181.461 479.616 180.871 479.616 180.144C479.616 179.417 479.026 178.828 478.299 178.828C477.571 178.828 476.982 179.417 476.982 180.144C476.982 180.871 477.571 181.461 478.299 181.461Z" fill="#B91D34"/>
<path d="M476.58 188.62H479.49C479.49 188.62 481.998 201.609 481.208 205.458L480.28 204.656L475.389 205.458C475.389 205.458 478.437 189.422 476.58 188.62Z" fill="#B91D34"/>
<path d="M476.104 156.159C476.104 156.159 470.598 167.681 476.104 176.959H481.058C486.564 167.681 481.058 156.159 481.058 156.159H476.104Z" fill="#D01D35"/>
<path d="M478.236 154.304V148.035" stroke="#FBAC39" stroke-miterlimit="10"/>
<path d="M480.343 199.929C480.769 200.649 480.982 201.475 480.957 202.311C480.995 203.165 480.719 204.004 480.18 204.668C480.066 203.888 480.012 203.1 480.017 202.311C480.006 201.505 480.116 200.702 480.343 199.929Z" fill="#D33333"/>
<path d="M499.143 301.962V311.027" stroke="#FBAC39" stroke-miterlimit="10"/>
<path d="M487.755 267.558H510.355V269.902H487.755V267.558ZM487.755 296.257H510.355V298.601H487.755V296.257Z" fill="#FBAC39"/>
<path d="M507.245 269.902H490.853C488.627 271.304 486.794 273.247 485.523 275.549C484.252 277.851 483.585 280.438 483.585 283.067C483.585 285.697 484.252 288.283 485.523 290.585C486.794 292.888 488.627 294.83 490.853 296.232H507.245C509.473 294.832 511.31 292.891 512.583 290.588C513.856 288.286 514.524 285.698 514.524 283.067C514.524 280.436 513.856 277.849 512.583 275.546C511.31 273.244 509.473 271.302 507.245 269.902Z" fill="#B91D34"/>
<path d="M499.143 301.974C500.071 301.974 500.823 301.222 500.823 300.294C500.823 299.366 500.071 298.614 499.143 298.614C498.215 298.614 497.462 299.366 497.462 300.294C497.462 301.222 498.215 301.974 499.143 301.974Z" fill="#B91D34"/>
<path d="M496.961 311.027H500.648C500.648 311.027 503.821 327.477 502.818 332.341L501.651 331.338L495.456 332.341C495.456 332.341 499.306 312.042 496.961 311.027Z" fill="#B91D34"/>
<path d="M496.359 269.902C496.359 269.902 489.385 284.509 496.359 296.232H502.629C509.603 284.484 502.629 269.902 502.629 269.902H496.359Z" fill="#D01D35"/>
<path d="M499.055 267.558V259.622" stroke="#FBAC39" stroke-miterlimit="10"/>
<path d="M501.751 325.357C502.205 326.295 502.433 327.325 502.416 328.366C502.451 329.428 502.148 330.472 501.551 331.35C501.488 330.297 501.475 329.357 501.475 328.366C501.458 327.356 501.551 326.347 501.751 325.357Z" fill="#D33333"/>
<path d="M89.0327 301.962V311.027" stroke="#FBAC39" stroke-miterlimit="10"/>
<path d="M77.6449 267.558H100.245V269.902H77.6449V267.558ZM77.6449 296.257H100.245V298.601H77.6449V296.257Z" fill="#FBAC39"/>
<path d="M97.1346 269.902H80.7428C78.5173 271.304 76.6834 273.247 75.4125 275.549C74.1415 277.851 73.4749 280.438 73.4749 283.067C73.4749 285.697 74.1415 288.283 75.4125 290.585C76.6834 292.888 78.5173 294.83 80.7428 296.232H97.1346C99.363 294.832 101.2 292.891 102.473 290.588C103.746 288.286 104.413 285.698 104.413 283.067C104.413 280.436 103.746 277.849 102.473 275.546C101.2 273.244 99.363 271.302 97.1346 269.902Z" fill="#B91D34"/>
<path d="M89.0327 301.974C89.9609 301.974 90.7133 301.222 90.7133 300.294C90.7133 299.366 89.9609 298.614 89.0327 298.614C88.1046 298.614 87.3522 299.366 87.3522 300.294C87.3522 301.222 88.1046 301.974 89.0327 301.974Z" fill="#B91D34"/>
<path d="M86.8505 311.027H90.5377C90.5377 311.027 93.7107 327.477 92.7074 332.341L91.541 331.338L85.3455 332.341C85.3455 332.341 89.1957 312.042 86.8505 311.027Z" fill="#B91D34"/>
<path d="M86.2485 269.902C86.2485 269.902 79.2754 284.509 86.2485 296.232H92.5193C99.4924 284.484 92.5193 269.902 92.5193 269.902H86.2485Z" fill="#D01D35"/>
<path d="M88.9449 267.558V259.622" stroke="#FBAC39" stroke-miterlimit="10"/>
<path d="M91.6414 325.357C92.0948 326.295 92.3225 327.325 92.3061 328.366C92.3408 329.428 92.0378 330.472 91.4407 331.35C91.4407 330.297 91.3654 329.357 91.3654 328.366C91.348 327.356 91.4405 326.347 91.6414 325.357Z" fill="#D33333"/>
<path d="M166 305.334V310.287" stroke="#FBAC39" stroke-miterlimit="10"/>
<path d="M159.767 286.528H172.121V287.807H159.767V286.528ZM159.767 302.213H172.121V303.492H159.767V302.213Z" fill="#FBAC39"/>
<path d="M170.428 287.819H161.473C160.252 288.582 159.246 289.643 158.548 290.902C157.85 292.161 157.484 293.576 157.484 295.016C157.484 296.455 157.85 297.87 158.548 299.129C159.246 300.388 160.252 301.449 161.473 302.212H170.428C171.648 301.449 172.655 300.388 173.353 299.129C174.05 297.87 174.416 296.455 174.416 295.016C174.416 293.576 174.05 292.161 173.353 290.902C172.655 289.643 171.648 288.582 170.428 287.819Z" fill="#B91D34"/>
<path d="M166 305.334C166.506 305.334 166.916 304.925 166.916 304.419C166.916 303.914 166.506 303.504 166 303.504C165.495 303.504 165.085 303.914 165.085 304.419C165.085 304.925 165.495 305.334 166 305.334Z" fill="#B91D34"/>
<path d="M164.809 310.287H166.803C166.803 310.287 168.546 319.277 168.057 321.947L167.418 321.396L164.031 321.947C164.031 321.947 166.088 310.839 164.809 310.287Z" fill="#B91D34"/>
<path d="M164.47 287.819C164.47 287.819 160.708 295.793 164.47 302.212H167.907C171.669 295.793 167.907 287.819 167.907 287.819H164.47Z" fill="#D01D35"/>
<path d="M165.95 286.528V282.189" stroke="#FBAC39" stroke-miterlimit="10"/>
<path d="M167.418 318.123C167.821 318.556 168.049 319.124 168.057 319.715C168.07 320.02 168.016 320.324 167.899 320.605C167.782 320.887 167.605 321.139 167.38 321.345C167.209 320.819 167.12 320.269 167.117 319.715C167.1 319.169 167.203 318.626 167.418 318.123Z" fill="#D33333"/>
<path d="M394.257 192.494V197.446" stroke="#FBAC39" stroke-miterlimit="10"/>
<path d="M388.024 173.687H400.378V174.966H388.024V173.687ZM388.024 189.372H400.378V190.651H388.024V189.372Z" fill="#FBAC39"/>
<path d="M398.685 174.979H389.73C388.509 175.742 387.503 176.803 386.805 178.061C386.107 179.32 385.741 180.736 385.741 182.175C385.741 183.615 386.107 185.03 386.805 186.289C387.503 187.548 388.509 188.609 389.73 189.372H398.685C399.905 188.609 400.912 187.548 401.61 186.289C402.307 185.03 402.673 183.615 402.673 182.175C402.673 180.736 402.307 179.32 401.61 178.061C400.912 176.803 399.905 175.742 398.685 174.979Z" fill="#B91D34"/>
<path d="M394.257 192.494C394.763 192.494 395.173 192.084 395.173 191.578C395.173 191.073 394.763 190.663 394.257 190.663C393.752 190.663 393.342 191.073 393.342 191.578C393.342 192.084 393.752 192.494 394.257 192.494Z" fill="#B91D34"/>
<path d="M393.066 197.446H395.06C395.06 197.446 396.803 206.436 396.252 209.107L395.612 208.555L392.226 209.107C392.226 209.107 394.345 197.998 393.066 197.446Z" fill="#B91D34"/>
<path d="M392.727 174.979C392.727 174.979 388.965 182.953 392.727 189.372H396.164C399.926 182.953 396.164 174.979 396.164 174.979H392.727Z" fill="#D01D35"/>
<path d="M394.207 173.687V169.349" stroke="#FBAC39" stroke-miterlimit="10"/>
<path d="M395.675 205.282C396.069 205.721 396.295 206.285 396.314 206.875C396.33 207.18 396.278 207.484 396.161 207.766C396.044 208.048 395.865 208.301 395.637 208.504C395.466 207.978 395.377 207.428 395.374 206.875C395.357 206.328 395.46 205.785 395.675 205.282Z" fill="#D33333"/>
<path d="M379.208 92.1909V97.1434" stroke="#FBAC39" stroke-miterlimit="10"/>
<path d="M372.974 73.3843H385.328V74.6631H372.974V73.3843ZM372.974 89.0691H385.328V90.348H372.974V89.0691Z" fill="#FBAC39"/>
<path d="M383.635 74.6753H374.68C373.459 75.4384 372.453 76.4993 371.755 77.7582C371.057 79.0171 370.691 80.4328 370.691 81.872C370.691 83.3113 371.057 84.7269 371.755 85.9858C372.453 87.2447 373.459 88.3056 374.68 89.0688H383.635C384.855 88.3056 385.862 87.2447 386.56 85.9858C387.257 84.7269 387.623 83.3113 387.623 81.872C387.623 80.4328 387.257 79.0171 386.56 77.7582C385.862 76.4993 384.855 75.4384 383.635 74.6753Z" fill="#B91D34"/>
<path d="M379.208 92.1909C379.713 92.1909 380.123 91.7811 380.123 91.2756C380.123 90.7701 379.713 90.3604 379.208 90.3604C378.702 90.3604 378.292 90.7701 378.292 91.2756C378.292 91.7811 378.702 92.1909 379.208 92.1909Z" fill="#B91D34"/>
<path d="M378.016 97.1436H380.01C380.01 97.1436 381.753 106.133 381.202 108.804L380.562 108.252L377.176 108.804C377.176 108.804 379.295 97.6952 378.016 97.1436Z" fill="#B91D34"/>
<path d="M377.678 74.6753C377.678 74.6753 373.915 82.6494 377.678 89.0688H381.114C384.876 82.6494 381.114 74.6753 381.114 74.6753H377.678Z" fill="#D01D35"/>
<path d="M379.157 73.384V69.0459" stroke="#FBAC39" stroke-miterlimit="10"/>
<path d="M380.625 104.979C381.019 105.419 381.245 105.982 381.264 106.572C381.281 106.877 381.228 107.182 381.111 107.464C380.994 107.746 380.815 107.998 380.587 108.202C380.416 107.675 380.327 107.125 380.324 106.572C380.307 106.025 380.41 105.482 380.625 104.979Z" fill="#D33333"/>
<path d="M234.979 317.872V322.825" stroke="#FBAC39" stroke-miterlimit="10"/>
<path d="M228.746 299.065H241.099V300.344H228.746V299.065ZM228.746 314.75H241.099V316.029H228.746V314.75Z" fill="#FBAC39"/>
<path d="M239.406 300.357H230.452C229.231 301.12 228.225 302.181 227.527 303.44C226.829 304.699 226.463 306.114 226.463 307.554C226.463 308.993 226.829 310.409 227.527 311.667C228.225 312.926 229.231 313.987 230.452 314.75H239.406C240.627 313.987 241.634 312.926 242.331 311.667C243.029 310.409 243.395 308.993 243.395 307.554C243.395 306.114 243.029 304.699 242.331 303.44C241.634 302.181 240.627 301.12 239.406 300.357Z" fill="#B91D34"/>
<path d="M234.979 317.872C235.485 317.872 235.895 317.463 235.895 316.957C235.895 316.452 235.485 316.042 234.979 316.042C234.474 316.042 234.064 316.452 234.064 316.957C234.064 317.463 234.474 317.872 234.979 317.872Z" fill="#B91D34"/>
<path d="M233.788 322.825H235.782C235.782 322.825 237.525 331.814 237.036 334.485L236.397 333.933L233.01 334.485C233.01 334.485 235.067 323.376 233.788 322.825Z" fill="#B91D34"/>
<path d="M233.449 300.357C233.449 300.357 229.687 308.331 233.449 314.75H236.886C240.648 308.331 236.886 300.357 236.886 300.357H233.449Z" fill="#D01D35"/>
<path d="M234.929 299.066V294.728" stroke="#FBAC39" stroke-miterlimit="10"/>
<path d="M236.396 330.661C236.8 331.094 237.028 331.662 237.036 332.253C237.049 332.558 236.995 332.862 236.878 333.143C236.761 333.425 236.584 333.677 236.359 333.883C236.187 333.357 236.099 332.807 236.095 332.253C236.079 331.707 236.182 331.164 236.396 330.661Z" fill="#D33333"/>
<path d="M192.338 192.494V197.446" stroke="#FBAC39" stroke-miterlimit="10"/>
<path d="M186.105 173.687H198.458V174.966H186.105V173.687ZM186.105 189.372H198.458V190.651H186.105V189.372Z" fill="#FBAC39"/>
<path d="M196.765 174.979H187.81C186.59 175.742 185.583 176.803 184.885 178.061C184.188 179.32 183.822 180.736 183.822 182.175C183.822 183.615 184.188 185.03 184.885 186.289C185.583 187.548 186.59 188.609 187.81 189.372H196.765C197.986 188.609 198.992 187.548 199.69 186.289C200.388 185.03 200.754 183.615 200.754 182.175C200.754 180.736 200.388 179.32 199.69 178.061C198.992 176.803 197.986 175.742 196.765 174.979Z" fill="#B91D34"/>
<path d="M192.338 192.494C192.843 192.494 193.253 192.084 193.253 191.578C193.253 191.073 192.843 190.663 192.338 190.663C191.832 190.663 191.422 191.073 191.422 191.578C191.422 192.084 191.832 192.494 192.338 192.494Z" fill="#B91D34"/>
<path d="M191.146 197.446H193.141C193.141 197.446 194.884 206.436 194.395 209.107L193.755 208.555L190.369 209.107C190.369 209.107 192.426 197.998 191.146 197.446Z" fill="#B91D34"/>
<path d="M190.808 174.979C190.808 174.979 187.045 182.953 190.808 189.372H194.244C198.007 182.953 194.244 174.979 194.244 174.979H190.808Z" fill="#D01D35"/>
<path d="M192.288 173.687V169.349" stroke="#FBAC39" stroke-miterlimit="10"/>
<path d="M193.755 205.282C194.159 205.715 194.387 206.283 194.395 206.875C194.407 207.179 194.353 207.483 194.236 207.764C194.119 208.046 193.942 208.298 193.717 208.504C193.546 207.978 193.457 207.428 193.454 206.875C193.437 206.328 193.54 205.785 193.755 205.282Z" fill="#D33333"/>
<path d="M209.896 93.4448V98.3973" stroke="#FBAC39" stroke-miterlimit="10"/>
<path d="M203.663 74.6377H216.016V75.9166H203.663V74.6377ZM203.663 90.3226H216.016V91.6014H203.663V90.3226Z" fill="#FBAC39"/>
<path d="M214.323 75.9292H205.368C204.148 76.6923 203.141 77.7532 202.444 79.0121C201.746 80.2711 201.38 81.6867 201.38 83.1259C201.38 84.5652 201.746 85.9808 202.444 87.2397C203.141 88.4986 204.148 89.5595 205.368 90.3227H214.323C215.544 89.5595 216.55 88.4986 217.248 87.2397C217.946 85.9808 218.312 84.5652 218.312 83.1259C218.312 81.6867 217.946 80.2711 217.248 79.0121C216.55 77.7532 215.544 76.6923 214.323 75.9292Z" fill="#B91D34"/>
<path d="M209.896 93.4448C210.402 93.4448 210.812 93.035 210.812 92.5295C210.812 92.024 210.402 91.6143 209.896 91.6143C209.39 91.6143 208.981 92.024 208.981 92.5295C208.981 93.035 209.39 93.4448 209.896 93.4448Z" fill="#B91D34"/>
<path d="M208.705 98.397H210.699C210.699 98.397 212.442 107.387 211.953 110.057L211.313 109.506L207.927 110.057C207.927 110.057 209.984 98.9486 208.705 98.397Z" fill="#B91D34"/>
<path d="M208.366 75.9292C208.366 75.9292 204.604 83.9033 208.366 90.3227H211.802C215.565 83.9033 211.802 75.9292 211.802 75.9292H208.366Z" fill="#D01D35"/>
<path d="M209.846 74.6379V70.2998" stroke="#FBAC39" stroke-miterlimit="10"/>
<path d="M211.313 106.233C211.717 106.666 211.945 107.234 211.953 107.826C211.966 108.13 211.911 108.434 211.794 108.715C211.677 108.997 211.5 109.25 211.276 109.456C211.104 108.929 211.015 108.379 211.012 107.826C210.996 107.279 211.098 106.736 211.313 106.233Z" fill="#D33333"/>
<path d="M351.616 317.872V322.825" stroke="#FBAC39" stroke-miterlimit="10"/>
<path d="M345.383 299.065H357.736V300.344H345.383V299.065ZM345.383 314.75H357.736V316.029H345.383V314.75Z" fill="#FBAC39"/>
<path d="M356.043 300.357H347.088C345.868 301.12 344.861 302.181 344.164 303.44C343.466 304.699 343.1 306.114 343.1 307.554C343.1 308.993 343.466 310.409 344.164 311.667C344.861 312.926 345.868 313.987 347.088 314.75H356.043C357.264 313.987 358.27 312.926 358.968 311.667C359.666 310.409 360.032 308.993 360.032 307.554C360.032 306.114 359.666 304.699 358.968 303.44C358.27 302.181 357.264 301.12 356.043 300.357Z" fill="#B91D34"/>
<path d="M351.616 317.872C352.122 317.872 352.532 317.463 352.532 316.957C352.532 316.452 352.122 316.042 351.616 316.042C351.11 316.042 350.701 316.452 350.701 316.957C350.701 317.463 351.11 317.872 351.616 317.872Z" fill="#B91D34"/>
<path d="M350.425 322.825H352.419C352.419 322.825 354.162 331.814 353.61 334.485L352.971 333.933L349.584 334.485C349.584 334.485 351.704 323.376 350.425 322.825Z" fill="#B91D34"/>
<path d="M350.086 300.357C350.086 300.357 346.324 308.331 350.086 314.75H353.522C357.285 308.331 353.522 300.357 353.522 300.357H350.086Z" fill="#D01D35"/>
<path d="M351.566 299.066V294.728" stroke="#FBAC39" stroke-miterlimit="10"/>
<path d="M353.033 330.661C353.437 331.094 353.665 331.662 353.673 332.253C353.686 332.558 353.631 332.862 353.514 333.143C353.397 333.425 353.22 333.677 352.996 333.883C352.824 333.357 352.735 332.807 352.732 332.253C352.716 331.707 352.818 331.164 353.033 330.661Z" fill="#D33333"/>
<path d="M421.849 306.588V311.541" stroke="#FBAC39" stroke-miterlimit="10"/>
<path d="M415.616 287.781H427.969V289.06H415.616V287.781ZM415.616 303.466H427.969V304.745H415.616V303.466Z" fill="#FBAC39"/>
<path d="M426.276 289.073H417.321C416.101 289.836 415.094 290.897 414.397 292.156C413.699 293.415 413.333 294.83 413.333 296.269C413.333 297.709 413.699 299.124 414.397 300.383C415.094 301.642 416.101 302.703 417.321 303.466H426.276C427.497 302.703 428.503 301.642 429.201 300.383C429.899 299.124 430.265 297.709 430.265 296.269C430.265 294.83 429.899 293.415 429.201 292.156C428.503 290.897 427.497 289.836 426.276 289.073Z" fill="#B91D34"/>
<path d="M421.849 306.588C422.355 306.588 422.764 306.179 422.764 305.673C422.764 305.168 422.355 304.758 421.849 304.758C421.343 304.758 420.933 305.168 420.933 305.673C420.933 306.179 421.343 306.588 421.849 306.588Z" fill="#B91D34"/>
<path d="M420.657 311.541H422.652C422.652 311.541 424.395 320.53 423.843 323.201L423.203 322.649L419.817 323.201C419.817 323.201 421.937 312.092 420.657 311.541Z" fill="#B91D34"/>
<path d="M420.319 289.073C420.319 289.073 416.556 297.047 420.319 303.466H423.755C427.518 297.047 423.755 289.073 423.755 289.073H420.319Z" fill="#D01D35"/>
<path d="M421.799 287.781V283.443" stroke="#FBAC39" stroke-miterlimit="10"/>
<path d="M423.266 319.377C423.66 319.816 423.887 320.38 423.906 320.969C423.922 321.274 423.869 321.579 423.752 321.861C423.635 322.143 423.456 322.395 423.229 322.599C423.057 322.073 422.968 321.523 422.965 320.969C422.949 320.423 423.051 319.88 423.266 319.377Z" fill="#D33333"/>
<path d="M109.576 181.473V188.62" stroke="#FBAC39" stroke-miterlimit="10"/>
<path d="M100.583 154.303H118.43V156.159H100.583V154.303ZM100.583 176.959H118.43V178.815H100.583V176.959Z" fill="#FBAC39"/>
<path d="M115.985 156.159H103.042C101.28 157.263 99.8268 158.797 98.8199 160.616C97.8129 162.435 97.2847 164.48 97.2847 166.559C97.2847 168.638 97.8129 170.683 98.8199 172.503C99.8268 174.322 101.28 175.855 103.042 176.959H115.985C117.747 175.855 119.199 174.322 120.206 172.503C121.213 170.683 121.741 168.638 121.741 166.559C121.741 164.48 121.213 162.435 120.206 160.616C119.199 158.797 117.747 157.263 115.985 156.159Z" fill="#B91D34"/>
<path d="M109.576 181.461C110.303 181.461 110.893 180.871 110.893 180.144C110.893 179.417 110.303 178.828 109.576 178.828C108.849 178.828 108.259 179.417 108.259 180.144C108.259 180.871 108.849 181.461 109.576 181.461Z" fill="#B91D34"/>
<path d="M107.858 188.62H110.767C110.767 188.62 113.276 201.609 112.485 205.458L111.557 204.656L106.666 205.458C106.666 205.458 109.714 189.422 107.858 188.62Z" fill="#B91D34"/>
<path d="M107.381 156.159C107.381 156.159 101.875 167.681 107.381 176.959H112.335C117.841 167.681 112.335 156.159 112.335 156.159H107.381Z" fill="#D01D35"/>
<path d="M109.513 154.304V148.035" stroke="#FBAC39" stroke-miterlimit="10"/>
<path d="M111.62 199.929C112.046 200.649 112.259 201.475 112.235 202.311C112.272 203.165 111.996 204.004 111.457 204.668C111.343 203.888 111.289 203.1 111.294 202.311C111.283 201.505 111.393 200.702 111.62 199.929Z" fill="#D33333"/>
<path d="M87.2518 260.248C87.2518 260.248 276.63 346.759 501.124 260.248L499.205 260.988L500.886 259.095C500.886 259.095 437.94 286.365 398.045 233.919H190.319C150.436 286.365 87.4775 259.095 87.4775 259.095L89.3212 261.151L87.2518 260.248ZM108.573 147.407C108.573 147.407 269.431 220.917 477.458 148.436H477.358L475.163 149.188L474.912 149.263C460.276 153.965 416.933 163.506 387.535 124.839H200.828C169.562 165.976 122.494 152.548 111.006 148.461L108.573 147.407ZM442.179 53.3735C256.563 109.794 146.197 53.3735 146.197 53.3735L149.684 54.9909H149.747C160.557 58.5767 196.063 67.2404 219.979 35.7954H368.397C386.281 59.3415 410.649 60.4198 426.314 57.9749" fill="#EE1C25"/>
<path d="M510.706 381.314L521.592 272.598L521.642 274.316L518.331 168.509L518.294 167.468L518.331 167.268L534.748 66.0244L531.224 168.521V167.28L547.854 271.833V271.858L547.905 273.551L550.814 382.781L510.706 381.314Z" fill="#6D2632"/>
<path d="M385.905 97.0679L442.204 112.953L442.43 113.041H442.517L485.447 135.007L481.948 135.333L509.74 111.048C510.273 110.589 510.913 110.272 511.601 110.127C512.289 109.983 513.002 110.014 513.675 110.22C514.347 110.425 514.957 110.797 515.446 111.301C515.936 111.806 516.29 112.426 516.475 113.104L516.538 113.342L530.509 166.854C530.887 168.302 530.673 169.84 529.916 171.131C529.159 172.422 527.919 173.359 526.471 173.737C525.022 174.114 523.483 173.901 522.192 173.144C520.901 172.387 519.963 171.148 519.586 169.7C519.559 169.605 519.538 169.509 519.523 169.411L508.323 115.348L515.108 117.655L485.924 140.223L485.786 140.336C485.312 140.704 484.737 140.921 484.138 140.959C483.539 140.997 482.942 140.854 482.425 140.549L440.862 116.1L441.175 116.226L385.905 97.0679Z" fill="#6D2632"/>
<path d="M409.809 83.8032C411.565 85.7341 413.22 87.715 414.826 89.7211C416.431 91.7272 418.061 93.7458 419.604 95.802C421.147 97.8582 422.714 99.9144 424.232 101.983C425.749 104.052 427.229 106.171 428.697 108.252L429.951 110.083L428.22 111.813C424.04 115.992 419.792 120.046 415.478 123.975L414.587 124.815H413.333C409.479 124.815 405.629 124.764 401.782 124.664C397.932 124.551 394.082 124.413 390.219 124.175L391.862 123.561C388.664 126.068 385.378 128.501 382.092 130.92C380.412 132.087 378.756 133.278 377.076 134.431C375.395 135.585 373.664 136.726 371.908 137.791C373.163 136.186 374.542 134.644 375.909 133.102C377.276 131.56 378.656 130.08 380.035 128.563C382.857 125.617 385.679 122.658 388.589 119.787L389.166 119.223H390.232C394.094 118.997 397.945 118.859 401.795 118.746C405.645 118.633 409.496 118.596 413.346 118.583L411.226 119.411C415.557 115.432 419.955 111.541 424.42 107.738L423.956 111.286C422.668 109.063 421.414 106.831 420.194 104.591C418.973 102.351 417.756 100.086 416.544 97.7955C415.29 95.5261 414.186 93.2066 413.045 90.8871C411.904 88.5676 410.825 86.198 409.809 83.8032ZM463.211 83.8032C465.72 86.4738 468.102 89.2572 470.385 92.0657C472.668 94.8742 474.862 97.7704 477.02 100.679L477.358 101.143L477.458 102.271C478.387 112.364 478.713 122.457 478.713 132.55V133.967L477.897 135.096L475.076 138.995C474.147 140.249 473.157 141.502 472.204 142.857C470.28 145.423 468.316 147.959 466.309 150.467L465.393 151.608L464.415 151.884C459.273 153.338 454.093 154.68 448.839 155.833C446.217 156.41 443.584 156.962 440.925 157.438C438.266 157.915 435.595 158.353 432.873 158.692C435.206 157.263 437.589 155.971 439.972 154.692C442.355 153.413 444.775 152.247 447.196 151.094C452.049 148.774 456.953 146.643 461.907 144.624L460.013 146.029C461.735 143.312 463.491 140.625 465.281 137.967C466.184 136.638 467.061 135.296 467.99 133.992L470.749 130.043L469.934 132.55C469.934 122.52 470.31 112.364 471.188 102.271L471.627 103.876C470.059 100.616 468.516 97.3441 467.099 93.9965C465.682 90.6489 464.403 87.2762 463.211 83.8032ZM395.587 261.226L450.431 264.035L449.177 264.16L466.309 257.553L465.205 258.117C466.845 256.808 468.585 255.63 470.41 254.594C471.427 254.01 472.493 253.515 473.596 253.114C474.284 252.874 474.994 252.698 475.715 252.588L476.38 252.513H476.718C476.902 252.501 477.087 252.501 477.27 252.513C477.669 252.534 478.064 252.597 478.449 252.701C478.802 252.793 479.146 252.915 479.478 253.064C480.425 253.523 481.276 254.156 481.986 254.932C482.496 255.467 482.958 256.046 483.366 256.663C484.018 257.658 484.592 258.701 485.084 259.785C485.979 261.734 486.721 263.751 487.304 265.815L481.246 262.054L524.389 249.729C525.512 249.406 526.7 249.382 527.835 249.66C528.97 249.937 530.013 250.505 530.861 251.309L531.437 251.848L541.471 261.364C543.042 262.861 543.955 264.92 544.008 267.089C544.061 269.258 543.25 271.359 541.753 272.931C540.256 274.502 538.196 275.414 536.027 275.467C533.857 275.52 531.755 274.709 530.183 273.213C529.983 273.012 529.769 272.799 529.594 272.586L520.777 262.041L527.825 264.173L483.616 271.871L483.09 271.971C481.841 272.186 480.558 271.898 479.521 271.17C478.485 270.441 477.779 269.332 477.559 268.085C477.288 266.516 476.903 264.97 476.405 263.458C476.197 262.809 475.942 262.176 475.64 261.565C475.527 261.314 475.402 261.126 475.364 261.051C475.326 260.976 475.364 261.051 475.753 261.201L476.129 261.314H476.618C476.689 261.321 476.76 261.321 476.831 261.314C476.624 261.317 476.418 261.342 476.217 261.389C475.543 261.554 474.884 261.777 474.248 262.054C472.74 262.715 471.285 263.49 469.896 264.373L469.444 264.649C469.247 264.775 469.031 264.868 468.805 264.925L451.083 269.69L450.782 269.777C450.484 269.832 450.178 269.832 449.879 269.777L395.587 261.226ZM416.908 240.15C419.797 238.831 422.757 237.671 425.775 236.677C428.747 235.674 431.732 234.784 434.742 233.982C437.752 233.179 440.749 232.465 443.772 231.8C446.794 231.136 449.842 230.546 452.877 230.057L448.776 236.063C448.191 233.831 447.635 231.587 447.108 229.33C446.594 227.073 446.092 224.817 445.653 222.547C445.214 220.278 444.8 217.996 444.399 215.714C443.997 213.432 443.696 211.125 443.408 208.818L443.295 207.978C443.262 207.66 443.301 207.339 443.408 207.038C443.997 205.383 444.574 203.728 445.239 202.098C445.904 200.468 446.493 198.813 447.233 197.196C448.626 193.893 450.208 190.674 451.974 187.554C452.187 191.132 452.187 194.72 451.974 198.299C451.861 200.067 451.748 201.822 451.573 203.577C451.397 205.333 451.209 207.075 451.021 208.818V207.038C451.798 209.232 452.526 211.426 453.216 213.645C453.905 215.864 454.57 218.071 455.16 220.315C455.749 222.56 456.338 224.791 456.89 227.036C457.442 229.28 457.931 231.537 458.408 233.806V234.044C458.54 234.661 458.549 235.298 458.435 235.918C458.32 236.538 458.085 237.13 457.741 237.659C457.397 238.188 456.952 238.644 456.432 239C455.911 239.357 455.325 239.607 454.708 239.737L454.257 239.812C451.184 240.163 448.111 240.464 445.026 240.677C441.941 240.89 438.843 241.053 435.733 241.103C432.622 241.153 429.462 241.103 426.377 241.003C423.207 240.89 420.046 240.606 416.908 240.15Z" fill="#6D2632"/>
<path d="M473.872 261.001L429.738 215.513L481.246 252.45C481.851 252.884 482.365 253.432 482.758 254.065C483.151 254.697 483.416 255.401 483.537 256.135C483.658 256.87 483.633 257.621 483.464 258.346C483.295 259.071 482.984 259.756 482.55 260.361C482.116 260.966 481.567 261.48 480.935 261.873C480.302 262.266 479.598 262.53 478.864 262.652C478.129 262.773 477.377 262.748 476.652 262.579C475.927 262.409 475.242 262.099 474.637 261.665C474.368 261.46 474.112 261.238 473.872 261.001Z" fill="#6D2632"/>
<path d="M466.196 103.7C466.196 107.462 468.792 110.571 471.978 110.571C475.163 110.571 477.759 107.487 477.759 103.7C477.759 99.914 475.565 100.14 472.379 100.14C469.194 100.14 466.196 99.9015 466.196 103.7ZM451.861 125.968C451.861 129.729 454.043 129.516 457.229 129.516C460.414 129.516 463.01 126.444 463.01 122.645C463.01 118.846 460.427 115.774 457.229 115.774C454.031 115.774 451.861 122.169 451.861 125.968Z" fill="#EAA0CA"/>
<path d="M459.022 95.1625C459.022 97.6701 461.117 102.986 463.211 102.986C465.306 102.986 466.597 97.6575 466.597 95.1625C466.719 94.6007 466.714 94.0188 466.582 93.4593C466.449 92.8999 466.193 92.3772 465.833 91.9296C465.472 91.4821 465.015 91.121 464.496 90.8729C463.978 90.6249 463.41 90.4961 462.835 90.4961C462.26 90.4961 461.692 90.6249 461.173 90.8729C460.655 91.121 460.198 91.4821 459.837 91.9296C459.476 92.3772 459.22 92.8999 459.088 93.4593C458.956 94.0188 458.95 94.6007 459.072 95.1625H459.022ZM468.19 117.442C468.103 118.534 468.448 119.617 469.152 120.457C469.856 121.296 470.862 121.826 471.953 121.931C474.047 121.931 476.141 123.185 476.141 120.752C476.141 118.32 474.047 112.941 471.953 112.941C470.861 113.049 469.855 113.581 469.151 114.423C468.448 115.265 468.103 116.349 468.19 117.442ZM457.041 135.409C457.041 137.917 459.135 143.233 461.217 143.233C463.299 143.233 464.603 137.904 464.603 135.409C464.715 134.852 464.702 134.278 464.565 133.726C464.428 133.175 464.17 132.661 463.81 132.222C463.45 131.783 462.997 131.429 462.483 131.186C461.97 130.942 461.409 130.816 460.841 130.816C460.273 130.816 459.712 130.942 459.198 131.186C458.685 131.429 458.232 131.783 457.872 132.222C457.512 132.661 457.254 133.175 457.117 133.726C456.979 134.278 456.966 134.852 457.078 135.409H457.041ZM448.199 149.451C445.69 149.777 440.674 152.548 441 154.617C441.326 156.686 448.124 159.181 450.594 158.855C453.065 158.529 453.441 154.68 453.165 152.586C452.914 151.517 452.253 150.589 451.324 150.003C450.395 149.416 449.272 149.218 448.199 149.451ZM464.214 125.968C464.102 126.525 464.116 127.1 464.253 127.651C464.39 128.202 464.648 128.716 465.008 129.155C465.368 129.594 465.821 129.948 466.334 130.191C466.848 130.435 467.409 130.561 467.977 130.561C468.545 130.561 469.106 130.435 469.619 130.191C470.133 129.948 470.586 129.594 470.946 129.155C471.306 128.716 471.564 128.202 471.701 127.651C471.838 127.1 471.851 126.525 471.739 125.968C471.739 123.46 470.485 124.714 468.353 124.714C466.221 124.714 464.214 123.473 464.214 125.968ZM454.244 157.162C454.122 157.724 454.127 158.306 454.259 158.865C454.392 159.425 454.648 159.947 455.009 160.395C455.37 160.843 455.826 161.204 456.345 161.452C456.864 161.7 457.431 161.829 458.006 161.829C458.581 161.829 459.149 161.7 459.668 161.452C460.187 161.204 460.643 160.843 461.004 160.395C461.365 159.947 461.621 159.425 461.753 158.865C461.886 158.306 461.891 157.724 461.769 157.162C461.769 154.655 460.515 155.984 458.383 155.984C456.251 155.984 454.244 154.68 454.244 157.162Z" fill="#E0ADCD"/>
<path d="M388.89 124.125C388.89 127.886 391.084 127.673 394.27 127.673C397.456 127.673 400.077 124.551 400.077 120.752C400.077 116.953 397.493 113.882 394.295 113.882C391.097 113.882 388.89 120.276 388.89 124.125ZM424.759 108.44C424.759 112.201 427.342 115.298 430.54 115.298C433.738 115.298 436.711 115.549 436.711 111.75C436.711 107.951 433.726 101.557 430.54 101.557C427.355 101.557 424.759 104.641 424.759 108.44ZM402.046 94.6986C402.046 98.46 404.228 98.2469 407.426 98.2469C410.624 98.2469 413.195 95.1751 413.195 91.3761C413.195 87.5771 410.612 84.5054 407.426 84.5054C404.241 84.5054 402.046 90.8997 402.046 94.6986Z" fill="#EAA0CA"/>
<path d="M417.183 111.75C417.183 114.257 418.438 113.003 420.57 113.003C421.635 112.825 422.602 112.275 423.3 111.451C423.998 110.627 424.381 109.582 424.381 108.502C424.381 107.423 423.998 106.378 423.3 105.554C422.602 104.73 421.635 104.18 420.57 104.001C418.475 103.939 417.183 109.267 417.183 111.75ZM435.996 122.194C435.996 124.701 437.25 123.372 439.382 123.372C440.447 123.194 441.415 122.644 442.112 121.82C442.81 120.996 443.193 119.951 443.193 118.871C443.193 117.792 442.81 116.747 442.112 115.923C441.415 115.099 440.447 114.548 439.382 114.37C437.288 114.37 435.996 119.699 435.996 122.194ZM444.286 145.627C444.286 148.135 445.54 146.806 447.672 146.806C448.737 146.627 449.705 146.077 450.402 145.253C451.1 144.429 451.483 143.384 451.483 142.304C451.483 141.225 451.1 140.18 450.402 139.356C449.705 138.532 448.737 137.982 447.672 137.803C445.578 137.803 444.286 143.145 444.286 145.627ZM392.878 98.0082C392.878 100.516 394.132 99.262 396.264 99.262C397.329 99.0837 398.297 98.5336 398.994 97.7095C399.692 96.8854 400.075 95.8406 400.075 94.7609C400.075 93.6812 399.692 92.6365 398.994 91.8124C398.297 90.9883 397.329 90.4382 396.264 90.2598C394.17 90.1971 392.878 95.5257 392.878 98.0082ZM414.399 94.6982C414.287 95.255 414.3 95.8297 414.438 96.3809C414.575 96.932 414.833 97.4458 415.193 97.8852C415.553 98.3246 416.006 98.6786 416.519 98.9217C417.033 99.1647 417.594 99.2908 418.162 99.2908C418.73 99.2908 419.291 99.1647 419.804 98.9217C420.318 98.6786 420.771 98.3246 421.131 97.8852C421.491 97.4458 421.749 96.932 421.886 96.3809C422.023 95.8297 422.036 95.255 421.924 94.6982C421.924 92.1907 420.67 93.4444 418.538 93.4444C416.406 93.4444 414.399 92.2032 414.399 94.6982ZM438.228 108.114C438.116 108.671 438.129 109.245 438.267 109.796C438.404 110.347 438.662 110.861 439.022 111.301C439.382 111.74 439.835 112.094 440.348 112.337C440.862 112.58 441.423 112.706 441.991 112.706C442.559 112.706 443.12 112.58 443.633 112.337C444.147 112.094 444.6 111.74 444.96 111.301C445.32 110.861 445.578 110.347 445.715 109.796C445.852 109.245 445.865 108.671 445.753 108.114C445.753 105.606 444.499 106.935 442.367 106.935C440.235 106.935 438.228 105.631 438.228 108.114Z" fill="#E0ADCD"/>
<path d="M347.013 365.717C348.405 369.127 350.287 367.773 353.159 366.106C356.031 364.438 357.222 360.338 355.83 356.928C354.438 353.518 350.976 352.088 348.104 353.756C345.232 355.423 345.621 362.344 347.013 365.717ZM393.58 137.666C394.972 141.076 398.434 142.493 401.306 140.838C404.178 139.183 406.949 137.841 405.545 134.431C404.14 131.021 399.111 126.821 396.239 128.488C393.367 130.156 392.175 134.256 393.58 137.666ZM368.096 137.127C369.488 140.537 371.369 139.183 374.241 137.528C377.113 135.873 378.304 131.748 376.912 128.338C375.52 124.927 372.059 123.511 369.187 125.166C366.315 126.821 366.704 133.716 368.096 137.127Z" fill="#EAA0CA"/>
<path d="M379.647 120.965C379.802 121.459 380.064 121.912 380.414 122.293C380.764 122.675 381.193 122.975 381.671 123.172C382.15 123.369 382.666 123.459 383.182 123.435C383.699 123.411 384.205 123.275 384.663 123.034C386.544 121.956 388.902 122.031 387.987 119.799C387.071 117.568 383.221 113.856 381.34 114.947C380.405 115.6 379.725 116.556 379.416 117.654C379.107 118.751 379.189 119.921 379.647 120.965ZM387.987 144.587C388.902 146.818 389.592 144.975 391.473 143.885C392.42 143.245 393.112 142.294 393.431 141.197C393.749 140.1 393.673 138.926 393.217 137.879C393.064 137.383 392.805 136.927 392.456 136.543C392.107 136.159 391.677 135.857 391.198 135.658C390.719 135.459 390.202 135.369 389.683 135.393C389.165 135.417 388.659 135.555 388.2 135.798C386.281 136.888 387.071 142.355 387.987 144.587ZM361.072 144.875C361.988 147.107 362.678 145.264 364.559 144.186C365.505 143.542 366.196 142.589 366.514 141.49C366.832 140.392 366.757 139.217 366.302 138.167C366.15 137.671 365.89 137.215 365.541 136.831C365.192 136.447 364.763 136.145 364.284 135.947C363.805 135.748 363.287 135.657 362.769 135.681C362.251 135.705 361.744 135.844 361.286 136.086C359.367 137.177 360.157 142.643 361.072 144.875ZM317.177 211.978C318.092 214.209 318.782 212.366 320.663 211.276C321.611 210.634 322.304 209.68 322.622 208.581C322.941 207.482 322.864 206.306 322.407 205.257C322.251 204.764 321.989 204.311 321.64 203.929C321.29 203.548 320.86 203.248 320.382 203.051C319.904 202.854 319.388 202.764 318.871 202.788C318.354 202.811 317.848 202.948 317.39 203.189C315.471 204.267 316.261 209.746 317.177 211.978ZM348.042 286.816C348.957 289.048 352.795 292.759 354.676 291.668C356.557 290.578 355.767 285.111 354.852 282.892C354.696 282.399 354.434 281.945 354.084 281.564C353.735 281.183 353.306 280.882 352.828 280.684C352.35 280.486 351.835 280.394 351.318 280.416C350.801 280.438 350.295 280.573 349.835 280.811C348.884 281.446 348.184 282.394 347.857 283.49C347.529 284.587 347.595 285.763 348.042 286.816ZM384.412 188.407C385.328 190.638 389.166 194.349 391.047 193.259C392.928 192.168 392.138 186.701 391.222 184.482C391.066 183.989 390.804 183.536 390.455 183.154C390.105 182.773 389.677 182.473 389.199 182.274C388.721 182.076 388.205 181.985 387.688 182.007C387.171 182.028 386.665 182.163 386.206 182.401C385.254 183.037 384.555 183.985 384.227 185.081C383.9 186.177 383.965 187.353 384.412 188.407ZM379.208 130.707C379.361 131.202 379.622 131.657 379.971 132.039C380.321 132.422 380.751 132.723 381.23 132.92C381.709 133.118 382.225 133.207 382.743 133.182C383.261 133.157 383.766 133.019 384.224 132.776C385.17 132.133 385.863 131.18 386.183 130.082C386.503 128.984 386.432 127.809 385.98 126.758C385.064 124.526 384.375 126.369 382.493 127.46C380.612 128.551 378.292 128.463 379.208 130.707Z" fill="#E0ADCD"/>
<path d="M445.879 180.445C445.879 184.206 448.462 187.315 451.66 187.315C454.858 187.315 457.43 184.244 457.43 180.445C457.43 176.646 455.247 176.896 452.049 176.896C448.851 176.896 445.879 176.658 445.879 180.445ZM454.244 216.453C454.244 220.215 456.827 223.324 460.026 223.324C463.224 223.324 466.196 223.562 466.196 219.776C466.196 215.99 463.211 209.583 460.026 209.583C456.84 209.583 454.244 212.667 454.244 216.453Z" fill="#EAA0CA"/>
<path d="M447.873 194.186C447.785 195.28 448.13 196.364 448.834 197.206C449.537 198.047 450.543 198.579 451.635 198.688C453.717 198.688 455.812 199.941 455.812 197.509C455.812 195.077 453.717 189.685 451.635 189.685C450.543 189.794 449.537 190.326 448.834 191.167C448.13 192.009 447.785 193.093 447.873 194.186ZM439.106 229.255C439.106 231.762 440.36 230.433 442.492 230.433C443.558 230.255 444.525 229.705 445.223 228.881C445.921 228.057 446.303 227.012 446.303 225.932C446.303 224.853 445.921 223.808 445.223 222.984C444.525 222.16 443.558 221.61 442.492 221.431C440.398 221.431 439.106 226.76 439.106 229.255ZM427.543 219.3C427.543 221.807 429.637 227.111 431.732 227.111C433.826 227.111 435.118 221.782 435.118 219.3C435.24 218.738 435.235 218.156 435.102 217.597C434.97 217.037 434.714 216.515 434.353 216.067C433.992 215.619 433.536 215.258 433.017 215.01C432.498 214.762 431.93 214.633 431.355 214.633C430.78 214.633 430.213 214.762 429.694 215.01C429.175 215.258 428.719 215.619 428.358 216.067C427.997 216.515 427.741 217.037 427.608 217.597C427.476 218.156 427.471 218.738 427.593 219.3H427.543ZM436.711 212.191C436.711 214.698 438.805 220.014 440.9 220.014C442.994 220.014 444.286 214.673 444.286 212.191C444.408 211.629 444.403 211.047 444.27 210.488C444.138 209.928 443.882 209.406 443.521 208.958C443.16 208.51 442.704 208.149 442.185 207.901C441.666 207.653 441.098 207.524 440.523 207.524C439.948 207.524 439.381 207.653 438.862 207.901C438.343 208.149 437.886 208.51 437.526 208.958C437.165 209.406 436.909 209.928 436.776 210.488C436.644 211.047 436.639 211.629 436.761 212.191H436.711ZM440.298 188.983C440.298 191.491 442.392 196.794 444.486 196.794C446.581 196.794 447.873 191.466 447.873 188.983C447.995 188.422 447.989 187.84 447.857 187.28C447.725 186.721 447.469 186.198 447.108 185.75C446.747 185.303 446.29 184.942 445.772 184.694C445.253 184.446 444.685 184.317 444.11 184.317C443.535 184.317 442.967 184.446 442.449 184.694C441.93 184.942 441.473 185.303 441.113 185.75C440.752 186.198 440.496 186.721 440.363 187.28C440.231 187.84 440.226 188.422 440.348 188.983H440.298Z" fill="#E0ADCD"/>
<path d="M400.967 269.376C402.372 272.786 404.253 271.432 407.112 269.777C409.972 268.122 411.176 264.01 409.784 260.599C408.392 257.189 404.93 255.76 402.058 257.427C399.186 259.095 399.575 265.965 400.967 269.376ZM425.448 242.043C426.853 245.453 430.302 246.87 433.174 245.215C436.046 243.56 438.818 242.219 437.426 238.808C436.033 235.398 430.992 231.198 428.12 232.865C425.248 234.533 424.056 238.633 425.448 242.043ZM447.735 236.69C449.127 240.1 452.588 241.517 455.46 239.862C458.332 238.207 461.104 236.865 459.712 233.455C458.32 230.044 453.278 225.844 450.406 227.499C447.534 229.154 446.38 233.279 447.735 236.69ZM408.856 333.118C410.26 336.528 412.129 335.174 415.001 333.519C417.873 331.864 419.065 327.752 417.673 324.342C416.28 320.931 412.819 319.502 409.947 321.17C407.075 322.837 407.476 329.745 408.856 333.118Z" fill="#EAA0CA"/>
<path d="M408.266 239.272C408.422 239.765 408.684 240.219 409.034 240.6C409.383 240.981 409.812 241.282 410.29 241.48C410.768 241.678 411.284 241.77 411.801 241.748C412.318 241.726 412.824 241.591 413.283 241.354C415.164 240.263 417.522 240.338 416.607 238.106C415.691 235.874 411.853 232.163 409.972 233.254C409.033 233.903 408.349 234.859 408.038 235.957C407.727 237.055 407.807 238.227 408.266 239.272ZM356.695 212.642C357.611 214.874 358.301 213.03 360.182 211.94C361.129 211.298 361.822 210.344 362.141 209.245C362.459 208.146 362.383 206.97 361.925 205.922C361.772 205.427 361.511 204.972 361.161 204.589C360.812 204.207 360.382 203.906 359.903 203.709C359.424 203.511 358.907 203.422 358.39 203.446C357.872 203.471 357.366 203.61 356.909 203.853C354.99 204.931 355.78 210.41 356.695 212.642ZM417.346 236.664C417.502 237.158 417.764 237.611 418.114 237.992C418.464 238.374 418.892 238.674 419.37 238.872C419.848 239.07 420.364 239.162 420.881 239.14C421.398 239.118 421.904 238.984 422.363 238.746C423.309 238.102 424 237.149 424.318 236.05C424.637 234.952 424.562 233.777 424.106 232.727C423.191 230.496 422.501 232.339 420.62 233.43C418.739 234.52 416.381 234.458 417.346 236.664Z" fill="#E0ADCD"/>
<path d="M472.091 244.877C473.596 248.225 475.427 246.783 478.236 245.003C479.653 243.971 480.666 242.477 481.099 240.778C481.531 239.08 481.357 237.283 480.606 235.699C479.114 232.352 475.59 231.098 472.793 232.878C469.996 234.659 470.586 241.53 472.091 244.877Z" fill="#EAA0CA"/>
<path d="M465.293 252.939C466.284 255.133 466.911 253.265 468.754 252.086C469.67 251.4 470.323 250.421 470.606 249.313C470.889 248.205 470.784 247.033 470.31 245.993C470.135 245.501 469.853 245.055 469.485 244.686C469.117 244.317 468.672 244.034 468.181 243.858C467.69 243.681 467.167 243.616 466.648 243.666C466.129 243.717 465.628 243.882 465.18 244.149C463.362 245.328 464.34 250.757 465.293 252.939ZM480.418 250.331C481.396 252.525 485.359 256.06 487.203 254.882C489.047 253.703 488.081 248.287 487.09 246.105C486.92 245.612 486.642 245.163 486.276 244.791C485.91 244.419 485.466 244.134 484.975 243.956C484.484 243.778 483.96 243.712 483.441 243.763C482.921 243.814 482.42 243.98 481.973 244.25C481.061 244.935 480.409 245.911 480.127 247.017C479.844 248.123 479.947 249.291 480.418 250.331Z" fill="#E0ADCD"/>
<path d="M452.225 274.454C452.82 274.976 453.527 275.356 454.291 275.565C455.056 275.773 455.858 275.805 456.636 275.657C457.414 275.51 458.149 275.187 458.784 274.714C459.419 274.24 459.938 273.628 460.301 272.924C461.212 271.42 461.583 269.652 461.355 267.909C461.128 266.166 460.314 264.552 459.047 263.333C456.464 261.101 455.285 263.333 453.466 266.417C451.648 269.502 449.641 272.235 452.225 274.454Z" fill="#EAA0CA"/>
<path d="M442.204 276.359C443.897 277.814 448.763 278.93 449.992 276.911C451.221 274.892 448.349 270.529 446.656 269.062C446.265 268.721 445.801 268.474 445.299 268.339C444.798 268.204 444.273 268.185 443.763 268.282C443.253 268.38 442.772 268.593 442.356 268.904C441.941 269.215 441.601 269.616 441.364 270.078C440.759 271.062 440.513 272.224 440.666 273.368C440.819 274.512 441.362 275.569 442.204 276.359ZM464.127 264.549C465.82 266.003 470.686 267.119 471.903 265.113C473.119 263.107 470.26 258.719 468.566 257.264C468.178 256.921 467.716 256.67 467.215 256.533C466.715 256.396 466.19 256.375 465.68 256.471C465.171 256.568 464.69 256.78 464.275 257.092C463.86 257.403 463.522 257.805 463.286 258.267C462.682 259.251 462.435 260.413 462.588 261.557C462.741 262.702 463.285 263.758 464.127 264.549ZM466.334 277.475C467.417 277.234 468.368 276.591 468.996 275.677C469.625 274.763 469.883 273.645 469.72 272.548C469.507 270.04 470.398 267.533 468.316 267.721C466.234 267.909 461.982 270.968 462.183 273.438C462.383 275.908 464.252 277.726 466.334 277.475Z" fill="#E0ADCD"/>
<path d="M439.357 257.026C437.814 253.704 435.996 255.171 433.212 257.026C431.806 258.073 430.809 259.578 430.395 261.281C429.98 262.984 430.174 264.779 430.942 266.354C432.484 269.677 435.958 270.893 438.793 269.063C441.627 267.232 440.9 260.349 439.357 257.026Z" fill="#EAA0CA"/>
<path d="M438.09 274.078C437.074 271.896 436.472 273.789 434.641 274.98C433.731 275.676 433.086 276.663 432.815 277.776C432.543 278.889 432.661 280.062 433.149 281.099C433.326 281.59 433.61 282.035 433.982 282.401C434.353 282.768 434.802 283.046 435.296 283.215C435.789 283.385 436.315 283.442 436.833 283.381C437.352 283.321 437.85 283.145 438.291 282.867C440.122 281.663 439.094 276.259 438.09 274.078ZM428.157 265.439C427.154 263.258 423.141 259.785 421.322 260.988C419.504 262.192 420.52 267.608 421.535 269.765C421.712 270.256 421.997 270.701 422.368 271.067C422.74 271.433 423.189 271.712 423.682 271.881C424.176 272.051 424.701 272.108 425.22 272.047C425.738 271.987 426.236 271.811 426.677 271.533C427.58 270.836 428.218 269.853 428.487 268.746C428.756 267.638 428.64 266.472 428.157 265.439ZM388.451 94.7863C389.805 92.8931 388.112 92.8931 386.519 91.2757C386.163 90.8999 385.725 90.6104 385.24 90.4295C384.755 90.2486 384.234 90.1809 383.719 90.2317C383.204 90.2825 382.706 90.4505 382.266 90.7227C381.825 90.9949 381.453 91.3642 381.177 91.8023C380.523 92.7541 380.21 93.899 380.29 95.0509C380.37 96.2027 380.837 97.2937 381.616 98.1465C383.208 99.7513 387.096 96.6795 388.451 94.7863ZM405.495 104.165C405.495 106.672 407.589 111.988 409.671 111.988C411.753 111.988 413.057 106.66 413.057 104.165C413.169 103.608 413.156 103.033 413.019 102.482C412.882 101.931 412.624 101.417 412.264 100.978C411.904 100.538 411.451 100.184 410.937 99.9412C410.424 99.6981 409.863 99.572 409.295 99.572C408.727 99.572 408.166 99.6981 407.652 99.9412C407.139 100.184 406.686 100.538 406.326 100.978C405.966 101.417 405.708 101.931 405.571 102.482C405.433 103.033 405.42 103.608 405.532 104.165H405.495Z" fill="#E0ADCD"/>
<path d="M472.141 278.152C473.646 281.5 475.477 280.071 478.299 278.278C479.716 277.246 480.728 275.752 481.161 274.053C481.594 272.355 481.42 270.559 480.669 268.975C479.164 265.627 475.652 264.373 472.843 266.154C470.034 267.934 470.636 274.817 472.141 278.152Z" fill="#EAA0CA"/>
<path d="M469.595 136.85C469.595 139.358 470.849 138.029 472.981 138.029C474.046 137.851 475.014 137.301 475.711 136.476C476.409 135.652 476.792 134.608 476.792 133.528C476.792 132.448 476.409 131.404 475.711 130.579C475.014 129.755 474.046 129.205 472.981 129.027C470.887 129.027 469.595 134.355 469.595 136.85Z" fill="#E0ADCD"/>
<path d="M30.5262 382.781L33.4484 273.551L33.486 271.858L33.4985 271.833L50.1161 167.28V168.521L46.6045 66.0244L63.0089 167.268L63.0465 167.468L63.0089 168.509L59.7105 274.316L59.7606 272.598L70.6342 381.314L30.5262 382.781Z" fill="#6D2632"/>
<path d="M195.448 97.0679L140.165 116.226L140.478 116.1L98.9155 140.549C98.4015 140.855 97.8074 140.999 97.2103 140.964C96.6132 140.928 96.0407 140.714 95.5669 140.349L95.4164 140.223L66.2321 117.655L73.0296 115.348L61.8551 169.449C61.7243 170.193 61.4456 170.902 61.0354 171.536C60.6252 172.17 60.0919 172.716 59.4671 173.14C58.8423 173.564 58.1387 173.858 57.3979 174.006C56.6572 174.153 55.8944 174.15 55.1548 173.998C54.4152 173.845 53.7137 173.545 53.092 173.116C52.4703 172.688 51.941 172.139 51.5355 171.502C51.1299 170.865 50.8564 170.153 50.7311 169.408C50.6058 168.664 50.6312 167.902 50.8059 167.167C50.8208 167.074 50.8418 166.982 50.8686 166.891L64.8149 113.392V113.179C65.0925 112.124 65.7746 111.221 66.7135 110.665C67.6523 110.108 68.7725 109.944 69.8315 110.208C70.4508 110.376 71.0249 110.68 71.5121 111.098L99.4046 135.409L95.9055 135.083L138.823 113.091H138.911L139.136 113.003L195.448 97.0679Z" fill="#6D2632"/>
<path d="M171.531 83.8032C170.515 86.198 169.424 88.5425 168.296 90.862C167.167 93.1815 166.013 95.5011 164.796 97.7704C163.58 100.04 162.389 102.322 161.147 104.578C159.905 106.835 158.639 109.054 157.384 111.274L156.92 107.725C161.402 111.529 165.8 115.42 170.114 119.398L167.995 118.571C171.845 118.571 175.695 118.571 179.558 118.734C183.421 118.897 187.258 118.984 191.109 119.21H192.187L192.752 119.774C195.661 122.608 198.483 125.567 201.305 128.551C202.685 130.068 204.089 131.56 205.444 133.09C206.798 134.619 208.153 136.174 209.445 137.779C207.676 136.713 205.971 135.572 204.277 134.419C202.584 133.265 200.916 132.074 199.261 130.908C195.962 128.488 192.676 126.068 189.478 123.548L191.121 124.163C187.271 124.401 183.421 124.539 179.57 124.652C175.72 124.764 171.857 124.802 168.007 124.802H166.753L165.85 123.962C161.536 119.987 157.272 115.938 153.12 111.8L151.377 110.07L152.631 108.24C154.094 106.133 155.583 104.044 157.096 101.971C158.613 99.9018 160.156 97.8331 161.724 95.7894C163.292 93.7458 164.884 91.7146 166.502 89.7086C168.12 87.7025 169.788 85.7341 171.531 83.8032ZM118.129 83.8032C116.95 87.2762 115.621 90.6614 114.154 93.9965C112.686 97.3316 111.194 100.616 109.613 103.876L110.065 102.271C110.993 112.364 111.319 122.457 111.319 132.55L110.516 130.043L113.276 133.992C114.204 135.246 115.069 136.638 115.985 137.967C117.774 140.625 119.526 143.312 121.24 146.029L119.346 144.624C124.362 146.643 129.216 148.774 134.057 151.094C136.49 152.247 138.898 153.438 141.294 154.692C143.689 155.946 146.047 157.263 148.38 158.692C145.658 158.391 142.999 157.94 140.328 157.438C137.656 156.937 135.035 156.41 132.414 155.833C127.172 154.68 121.98 153.326 116.837 151.884L115.859 151.608L114.956 150.467C112.937 147.959 110.981 145.452 109.049 142.857C108.096 141.603 107.118 140.349 106.177 138.995L103.355 135.096L102.54 133.967V132.55C102.54 122.52 102.904 112.364 103.794 102.271L103.907 101.143L104.246 100.679C106.39 97.7704 108.573 94.8867 110.868 92.0657C113.163 89.2447 115.596 86.5114 118.129 83.8032ZM185.753 261.226L131.511 269.802C131.217 269.859 130.915 269.859 130.621 269.802L130.32 269.715L112.586 264.95C112.365 264.894 112.154 264.805 111.959 264.687L111.495 264.399C110.111 263.503 108.66 262.715 107.155 262.041C106.515 261.764 105.852 261.542 105.174 261.377C104.972 261.33 104.766 261.305 104.559 261.302C104.626 261.309 104.693 261.309 104.76 261.302H105.262L105.625 261.189C106.027 261.013 106.052 260.951 106.014 261.038C105.976 261.126 105.864 261.302 105.738 261.552C105.441 262.164 105.189 262.797 104.986 263.446C104.478 264.955 104.088 266.502 103.819 268.072C103.608 269.32 102.909 270.434 101.876 271.167C100.844 271.901 99.5624 272.194 98.3135 271.984L97.7868 271.884L53.5777 264.185L60.626 262.054L51.6463 272.573C50.9601 273.419 50.1114 274.119 49.1503 274.632C48.1893 275.146 47.1352 275.461 46.0502 275.561C44.9653 275.66 43.8713 275.541 42.8329 275.212C41.7945 274.882 40.8326 274.348 40.0039 273.641C39.1752 272.934 38.4965 272.068 38.0077 271.094C37.5189 270.121 37.2299 269.06 37.1578 267.973C37.0857 266.886 37.2319 265.796 37.5878 264.766C37.9437 263.737 38.5021 262.789 39.2301 261.979C39.4182 261.766 39.6189 261.552 39.8195 261.352L49.8528 251.836L50.4297 251.296C51.2781 250.494 52.3211 249.926 53.4559 249.649C54.5907 249.372 55.7782 249.395 56.9012 249.717L99.9816 262.041L93.924 265.803C94.512 263.74 95.2541 261.724 96.1438 259.772C96.6192 258.688 97.1812 257.644 97.8244 256.65C98.2318 256.037 98.689 255.458 99.1914 254.92C99.9201 254.137 100.793 253.503 101.762 253.052C102.095 252.902 102.439 252.781 102.791 252.688C103.176 252.585 103.571 252.522 103.97 252.5C104.158 252.488 104.346 252.488 104.534 252.5H104.86L105.525 252.575C106.246 252.685 106.956 252.862 107.644 253.102C108.751 253.503 109.821 253.998 110.843 254.581C112.663 255.617 114.4 256.795 116.035 258.105L114.944 257.54L132.063 264.148L130.809 264.022L185.753 261.226ZM164.433 240.15C161.294 240.606 158.133 240.891 154.964 241.003C151.828 241.153 148.693 241.166 145.595 241.103C142.498 241.04 139.325 240.89 136.302 240.677C133.279 240.464 130.144 240.163 127.071 239.812C125.81 239.652 124.663 238.999 123.883 237.995C123.102 236.992 122.751 235.72 122.908 234.458C122.908 234.308 122.908 234.157 122.983 234.019V233.769C123.459 231.495 123.965 229.238 124.5 226.998C125.052 224.754 125.617 222.51 126.244 220.278C126.871 218.046 127.498 215.827 128.175 213.608C128.852 211.388 129.592 209.194 130.37 207V208.781C130.169 207.038 129.943 205.295 129.805 203.54C129.667 201.784 129.517 200.029 129.417 198.261C129.203 194.683 129.203 191.095 129.417 187.516C131.187 190.633 132.77 193.853 134.157 197.158C134.86 198.775 135.537 200.418 136.164 202.06C136.791 203.703 137.418 205.345 137.995 207C138.103 207.301 138.137 207.624 138.095 207.941L137.995 208.781C137.694 211.088 137.368 213.395 136.992 215.676C136.616 217.958 136.214 220.253 135.738 222.51C135.261 224.766 134.784 227.036 134.27 229.293C133.756 231.549 133.192 233.794 132.615 236.025L128.501 230.02C131.545 230.538 134.58 231.119 137.606 231.762C140.629 232.427 143.651 233.117 146.649 233.944C149.646 234.772 152.644 235.637 155.616 236.64C158.616 237.649 161.56 238.821 164.433 240.15Z" fill="#6D2632"/>
<path d="M100.107 252.45L151.603 215.513L107.469 261.001C106.961 261.574 106.342 262.038 105.649 262.365C104.957 262.692 104.205 262.876 103.439 262.904C102.674 262.933 101.911 262.806 101.195 262.532C100.48 262.258 99.8282 261.841 99.2785 261.308C98.7288 260.774 98.293 260.135 97.9974 259.429C97.7017 258.722 97.5523 257.963 97.5582 257.197C97.5642 256.432 97.7253 255.675 98.0319 254.973C98.3384 254.271 98.7841 253.639 99.3419 253.114C99.5759 252.87 99.832 252.647 100.107 252.45Z" fill="#6D2632"/>
<path d="M115.144 103.7C115.144 107.462 112.561 110.571 109.363 110.571C106.165 110.571 103.581 107.487 103.581 103.7C103.581 99.914 105.776 100.14 108.961 100.14C112.147 100.14 115.144 99.9015 115.144 103.7ZM129.492 125.968C129.492 129.729 127.297 129.516 124.112 129.516C120.926 129.516 118.33 126.444 118.33 122.645C118.33 118.846 120.913 115.774 124.112 115.774C127.31 115.774 129.492 122.169 129.492 125.968Z" fill="#EAA0CA"/>
<path d="M122.318 95.1625C122.318 97.6701 120.224 102.986 118.129 102.986C116.035 102.986 114.743 97.6575 114.743 95.1625C114.621 94.6007 114.626 94.0188 114.758 93.4593C114.891 92.8999 115.147 92.3772 115.508 91.9296C115.869 91.4821 116.325 91.121 116.844 90.8729C117.363 90.6249 117.93 90.4961 118.505 90.4961C119.08 90.4961 119.648 90.6249 120.167 90.8729C120.686 91.121 121.142 91.4821 121.503 91.9296C121.864 92.3772 122.12 92.8999 122.252 93.4593C122.385 94.0188 122.39 94.6007 122.268 95.1625H122.318ZM113.15 117.442C113.237 118.534 112.892 119.617 112.188 120.457C111.484 121.296 110.478 121.826 109.388 121.931C107.306 121.931 105.211 123.185 105.211 120.752C105.211 118.32 107.306 112.941 109.388 112.941C110.48 113.049 111.485 113.581 112.189 114.423C112.892 115.265 113.238 116.349 113.15 117.442ZM124.312 135.409C124.312 137.917 122.218 143.233 120.123 143.233C118.029 143.233 116.737 137.904 116.737 135.409C116.615 134.847 116.62 134.265 116.753 133.706C116.885 133.146 117.141 132.624 117.502 132.176C117.863 131.729 118.319 131.368 118.838 131.119C119.357 130.871 119.924 130.743 120.5 130.743C121.075 130.743 121.642 130.871 122.161 131.119C122.68 131.368 123.136 131.729 123.497 132.176C123.858 132.624 124.114 133.146 124.246 133.706C124.379 134.265 124.384 134.847 124.262 135.409H124.312ZM133.141 149.451C135.65 149.777 140.666 152.548 140.353 154.617C140.039 156.686 133.217 159.181 130.759 158.855C128.3 158.529 127.912 154.68 128.188 152.586C128.436 151.518 129.095 150.59 130.022 150.004C130.949 149.417 132.069 149.219 133.141 149.451ZM117.138 125.968C117.26 126.53 117.255 127.112 117.123 127.671C116.99 128.231 116.734 128.753 116.374 129.201C116.013 129.648 115.556 130.009 115.037 130.258C114.519 130.506 113.951 130.634 113.376 130.634C112.801 130.634 112.233 130.506 111.714 130.258C111.196 130.009 110.739 129.648 110.378 129.201C110.017 128.753 109.761 128.231 109.629 127.671C109.497 127.112 109.491 126.53 109.613 125.968C109.613 123.46 110.868 124.714 113 124.714C115.132 124.714 117.138 123.473 117.138 125.968ZM127.096 157.162C127.218 157.724 127.213 158.306 127.081 158.865C126.948 159.425 126.692 159.947 126.332 160.395C125.971 160.843 125.514 161.204 124.995 161.452C124.477 161.7 123.909 161.829 123.334 161.829C122.759 161.829 122.191 161.7 121.672 161.452C121.154 161.204 120.697 160.843 120.336 160.395C119.975 159.947 119.719 159.425 119.587 158.865C119.455 158.306 119.449 157.724 119.571 157.162C119.571 154.655 120.826 155.984 122.97 155.984C125.115 155.984 127.096 154.68 127.096 157.162Z" fill="#E0ADCD"/>
<path d="M192.451 124.125C192.451 127.886 190.268 127.673 187.07 127.673C183.872 127.673 181.301 124.601 181.301 120.802C181.301 117.003 183.885 113.932 187.07 113.932C190.256 113.932 192.451 120.276 192.451 124.125ZM156.594 108.44C156.594 112.201 153.998 115.298 150.813 115.298C147.627 115.298 144.63 115.549 144.63 111.75C144.63 107.951 147.614 101.557 150.813 101.557C154.011 101.557 156.594 104.641 156.594 108.44ZM179.345 94.6986C179.345 98.46 177.15 98.2469 173.964 98.2469C170.779 98.2469 168.183 95.1751 168.183 91.3761C168.183 87.5771 170.766 84.5054 173.964 84.5054C177.162 84.5054 179.345 90.8997 179.345 94.6986Z" fill="#EAA0CA"/>
<path d="M164.157 111.75C164.157 114.257 162.903 113.003 160.771 113.003C159.705 112.825 158.738 112.275 158.04 111.451C157.342 110.627 156.96 109.582 156.96 108.502C156.96 107.423 157.342 106.378 158.04 105.554C158.738 104.73 159.705 104.18 160.771 104.001C162.865 103.939 164.157 109.267 164.157 111.75ZM145.344 122.194C145.344 124.701 144.09 123.372 141.958 123.372C140.893 123.194 139.926 122.644 139.228 121.82C138.53 120.996 138.147 119.951 138.147 118.871C138.147 117.792 138.53 116.747 139.228 115.923C139.926 115.099 140.893 114.548 141.958 114.37C144.053 114.37 145.344 119.699 145.344 122.194ZM137.067 145.627C137.067 148.135 135.813 146.806 133.668 146.806C132.615 146.612 131.663 146.056 130.978 145.234C130.292 144.411 129.917 143.375 129.917 142.304C129.917 141.234 130.292 140.198 130.978 139.375C131.663 138.553 132.615 137.997 133.668 137.803C135.763 137.803 137.067 143.145 137.067 145.627ZM188.475 98.0082C188.475 100.516 187.221 99.262 185.076 99.262C184.023 99.0687 183.071 98.5125 182.386 97.6902C181.7 96.8678 181.325 95.8313 181.325 94.7609C181.325 93.6905 181.7 92.654 182.386 91.8317C183.071 91.0093 184.023 90.4531 185.076 90.2598C187.171 90.1971 188.475 95.5257 188.475 98.0082ZM166.954 94.6982C167.076 95.26 167.07 95.8419 166.938 96.4014C166.806 96.9608 166.55 97.4835 166.189 97.9311C165.828 98.3786 165.371 98.7397 164.853 98.9878C164.334 99.2359 163.766 99.3646 163.191 99.3646C162.616 99.3646 162.048 99.2359 161.53 98.9878C161.011 98.7397 160.554 98.3786 160.193 97.9311C159.833 97.4835 159.577 96.9608 159.444 96.4014C159.312 95.8419 159.307 95.26 159.429 94.6982C159.429 92.1907 160.683 93.4444 162.815 93.4444C164.947 93.4444 166.954 92.2032 166.954 94.6982ZM143.125 108.114C143.247 108.675 143.241 109.257 143.109 109.817C142.977 110.376 142.721 110.899 142.36 111.347C141.999 111.794 141.542 112.155 141.024 112.403C140.505 112.651 139.937 112.78 139.362 112.78C138.787 112.78 138.219 112.651 137.701 112.403C137.182 112.155 136.725 111.794 136.364 111.347C136.004 110.899 135.748 110.376 135.615 109.817C135.483 109.257 135.478 108.675 135.6 108.114C135.6 105.606 136.854 106.935 138.986 106.935C141.118 106.935 143.125 105.631 143.125 108.114Z" fill="#E0ADCD"/>
<path d="M234.327 365.717C232.935 369.127 231.054 367.773 228.182 366.106C225.31 364.438 224.118 360.338 225.523 356.928C226.928 353.518 230.376 352.088 233.248 353.756C236.12 355.423 235.782 362.344 234.327 365.717ZM187.773 137.666C186.368 141.076 182.919 142.493 180.047 140.838C177.175 139.183 174.403 137.841 175.795 134.431C177.188 131.021 182.229 126.821 185.101 128.488C187.973 130.156 189.165 134.256 187.773 137.666ZM213.207 137.127C211.815 140.537 209.934 139.183 207.062 137.528C205.621 136.542 204.568 135.086 204.083 133.41C203.598 131.733 203.711 129.94 204.403 128.338C205.795 124.927 209.256 123.511 212.128 125.166C215 126.821 214.649 133.716 213.207 137.127Z" fill="#EAA0CA"/>
<path d="M201.694 120.965C201.54 121.46 201.28 121.915 200.93 122.298C200.581 122.68 200.151 122.981 199.672 123.178C199.193 123.376 198.676 123.465 198.158 123.44C197.641 123.416 197.135 123.277 196.677 123.034C194.796 121.956 192.438 122.031 193.354 119.799C194.269 117.568 198.107 113.856 199.988 114.947C200.929 115.595 201.615 116.55 201.926 117.649C202.237 118.748 202.155 119.921 201.694 120.965ZM193.354 144.587C192.438 146.818 191.748 144.975 189.88 143.885C188.942 143.247 188.254 142.303 187.934 141.215C187.613 140.126 187.681 138.961 188.124 137.917C188.278 137.422 188.539 136.967 188.888 136.585C189.237 136.202 189.666 135.901 190.145 135.702C190.624 135.504 191.14 135.413 191.658 135.436C192.175 135.459 192.681 135.595 193.141 135.835C195.072 136.888 194.269 142.355 193.354 144.587ZM220.268 144.875C219.352 147.107 218.675 145.264 216.794 144.186C215.846 143.544 215.152 142.591 214.832 141.493C214.511 140.394 214.584 139.218 215.038 138.167C215.192 137.673 215.453 137.218 215.802 136.835C216.152 136.453 216.581 136.152 217.059 135.953C217.538 135.755 218.054 135.664 218.572 135.686C219.089 135.709 219.596 135.846 220.055 136.086C221.986 137.177 221.184 142.643 220.268 144.875ZM264.164 211.978C263.248 214.209 262.571 212.366 260.69 211.276C259.742 210.634 259.048 209.681 258.727 208.583C258.407 207.484 258.48 206.308 258.934 205.257C259.089 204.764 259.351 204.311 259.701 203.929C260.051 203.548 260.48 203.248 260.958 203.051C261.437 202.854 261.953 202.764 262.47 202.788C262.987 202.811 263.492 202.948 263.95 203.189C265.882 204.267 265.079 209.746 264.164 211.978ZM233.274 286.816C232.358 289.048 228.508 292.759 226.627 291.668C224.745 290.578 225.548 285.111 226.464 282.892C226.618 282.397 226.879 281.943 227.228 281.56C227.577 281.177 228.006 280.876 228.485 280.678C228.963 280.479 229.48 280.388 229.997 280.411C230.515 280.434 231.021 280.57 231.48 280.811C232.428 281.45 233.125 282.397 233.452 283.493C233.779 284.588 233.716 285.762 233.274 286.816ZM196.903 188.407C195.987 190.638 192.137 194.349 190.256 193.259C188.375 192.168 189.177 186.701 190.093 184.482C190.247 183.988 190.508 183.533 190.857 183.15C191.206 182.768 191.635 182.466 192.114 182.268C192.593 182.069 193.109 181.978 193.627 182.001C194.144 182.024 194.651 182.161 195.11 182.401C196.057 183.04 196.754 183.988 197.081 185.083C197.408 186.178 197.345 187.353 196.903 188.407ZM202.145 130.707C201.99 131.201 201.728 131.654 201.378 132.035C201.028 132.417 200.599 132.716 200.121 132.914C199.642 133.111 199.126 133.201 198.609 133.177C198.092 133.153 197.587 133.016 197.129 132.776C196.183 132.132 195.492 131.179 195.174 130.081C194.855 128.982 194.93 127.807 195.385 126.758C196.301 124.526 196.991 126.369 198.86 127.46C200.728 128.551 203.061 128.463 202.145 130.707Z" fill="#E0ADCD"/>
<path d="M135.449 180.445C135.449 184.206 132.866 187.316 129.68 187.316C126.495 187.316 123.911 184.307 123.911 180.445C123.911 176.583 126.106 176.897 129.291 176.897C132.477 176.897 135.449 176.659 135.449 180.445ZM127.096 216.454C127.096 220.215 124.513 223.324 121.315 223.324C118.117 223.324 115.144 223.563 115.144 219.776C115.144 215.99 118.129 209.583 121.315 209.583C124.5 209.583 127.096 212.667 127.096 216.454Z" fill="#EAA0CA"/>
<path d="M133.48 194.186C133.564 195.279 133.218 196.361 132.515 197.202C131.812 198.043 130.808 198.576 129.718 198.688C127.623 198.688 125.529 199.941 125.529 197.509C125.529 195.077 127.623 189.685 129.718 189.685C130.808 189.797 131.812 190.33 132.515 191.171C133.218 192.011 133.564 193.094 133.48 194.186ZM142.247 229.255C142.247 231.762 140.993 230.433 138.86 230.433C137.795 230.255 136.828 229.705 136.13 228.881C135.432 228.057 135.049 227.012 135.049 225.932C135.049 224.853 135.432 223.808 136.13 222.984C136.828 222.16 137.795 221.61 138.86 221.431C140.942 221.431 142.247 226.76 142.247 229.255ZM153.797 219.3C153.797 221.807 151.703 227.111 149.609 227.111C147.514 227.111 146.222 221.782 146.222 219.3C146.1 218.738 146.106 218.156 146.238 217.597C146.37 217.037 146.626 216.514 146.987 216.067C147.348 215.619 147.805 215.258 148.323 215.01C148.842 214.762 149.41 214.633 149.985 214.633C150.56 214.633 151.128 214.762 151.646 215.01C152.165 215.258 152.622 215.619 152.983 216.067C153.343 216.514 153.599 217.037 153.732 217.597C153.864 218.156 153.869 218.738 153.747 219.3H153.797ZM144.63 212.191C144.63 214.698 142.535 220.014 140.453 220.014C138.371 220.014 137.067 214.673 137.067 212.191C136.955 211.634 136.968 211.059 137.105 210.508C137.243 209.957 137.5 209.443 137.86 209.004C138.22 208.564 138.673 208.21 139.187 207.967C139.7 207.724 140.261 207.598 140.829 207.598C141.398 207.598 141.959 207.724 142.472 207.967C142.986 208.21 143.439 208.564 143.799 209.004C144.159 209.443 144.416 209.957 144.554 210.508C144.691 211.059 144.704 211.634 144.592 212.191H144.63ZM141.043 188.983C141.043 191.491 138.948 196.794 136.866 196.794C134.784 196.794 133.48 191.466 133.48 188.983C133.368 188.426 133.381 187.852 133.518 187.301C133.656 186.749 133.914 186.236 134.274 185.796C134.634 185.357 135.087 185.003 135.6 184.76C136.113 184.517 136.674 184.391 137.243 184.391C137.811 184.391 138.372 184.517 138.885 184.76C139.399 185.003 139.852 185.357 140.212 185.796C140.572 186.236 140.83 186.749 140.967 187.301C141.104 187.852 141.117 188.426 141.005 188.983H141.043Z" fill="#E0ADCD"/>
<path d="M180.373 269.376C178.981 272.786 177.1 271.432 174.228 269.777C171.356 268.122 170.164 264.01 171.556 260.599C172.948 257.189 176.41 255.76 179.282 257.427C182.154 259.095 181.765 265.965 180.373 269.376ZM155.892 242.043C154.5 245.453 151.038 246.87 148.166 245.215C145.294 243.56 142.523 242.219 143.927 238.808C145.332 235.398 150.361 231.198 153.221 232.865C156.08 234.533 157.284 238.633 155.892 242.043ZM133.568 236.69C132.176 240.1 128.714 241.517 125.842 239.862C122.97 238.207 120.211 236.865 121.603 233.455C122.995 230.044 128.037 225.844 130.909 227.499C132.35 228.485 133.403 229.941 133.888 231.617C134.373 233.294 134.26 235.087 133.568 236.69ZM172.472 333.118C171.08 336.528 169.199 335.174 166.326 333.519C163.454 331.864 162.263 327.752 163.655 324.342C165.047 320.931 168.521 319.502 171.381 321.17C174.24 322.837 173.864 329.745 172.472 333.118Z" fill="#EAA0CA"/>
<path d="M173.074 239.272C172.918 239.766 172.656 240.219 172.306 240.6C171.957 240.982 171.528 241.282 171.05 241.48C170.572 241.679 170.057 241.77 169.54 241.748C169.023 241.726 168.517 241.592 168.057 241.354C166.189 240.263 163.818 240.338 164.734 238.106C165.649 235.875 169.5 232.164 171.381 233.254C172.316 233.907 172.996 234.863 173.304 235.961C173.613 237.058 173.532 238.228 173.074 239.272ZM224.645 212.642C223.729 214.874 223.04 213.031 221.158 211.94C220.211 211.298 219.518 210.345 219.2 209.246C218.881 208.146 218.957 206.971 219.415 205.922C219.571 205.428 219.833 204.975 220.182 204.594C220.532 204.213 220.961 203.913 221.44 203.715C221.918 203.518 222.434 203.428 222.951 203.452C223.468 203.476 223.974 203.613 224.432 203.853C226.351 204.931 225.561 210.41 224.645 212.642ZM163.994 236.665C163.84 237.159 163.579 237.614 163.23 237.996C162.88 238.379 162.451 238.68 161.973 238.879C161.494 239.077 160.978 239.168 160.46 239.145C159.943 239.122 159.436 238.986 158.977 238.746C158.029 238.104 157.335 237.152 157.015 236.053C156.694 234.954 156.767 233.778 157.221 232.728C158.137 230.496 158.827 232.339 160.708 233.43C162.589 234.521 164.909 234.458 163.994 236.665Z" fill="#E0ADCD"/>
<path d="M109.262 244.877C107.757 248.224 105.914 246.783 103.104 245.002C101.69 243.971 100.679 242.479 100.247 240.783C99.8141 239.088 99.9864 237.294 100.734 235.712C102.239 232.364 105.751 231.11 108.547 232.891C111.344 234.671 110.767 241.529 109.262 244.877Z" fill="#EAA0CA"/>
<path d="M116.022 252.939C115.044 255.133 114.417 253.265 112.573 252.086C111.658 251.4 111.005 250.422 110.722 249.314C110.439 248.205 110.543 247.034 111.018 245.993C111.191 245.502 111.472 245.056 111.838 244.687C112.205 244.318 112.65 244.035 113.139 243.858C113.629 243.682 114.152 243.616 114.67 243.667C115.188 243.717 115.689 243.882 116.135 244.15C117.979 245.328 117.013 250.757 116.022 252.939ZM100.935 250.331C99.944 252.525 95.9181 256.061 94.1372 254.882C92.3563 253.704 93.2718 248.287 94.2501 246.106C94.4215 245.612 94.7011 245.163 95.0682 244.791C95.4354 244.419 95.881 244.134 96.3726 243.956C96.8641 243.778 97.3891 243.712 97.9093 243.763C98.4296 243.814 98.9319 243.981 99.3796 244.25C100.292 244.936 100.944 245.912 101.226 247.017C101.509 248.123 101.406 249.292 100.935 250.331Z" fill="#E0ADCD"/>
<path d="M129.178 274.454C128.584 274.976 127.878 275.356 127.115 275.564C126.351 275.773 125.55 275.805 124.773 275.657C123.995 275.51 123.262 275.187 122.628 274.713C121.994 274.24 121.476 273.628 121.114 272.924C120.202 271.421 119.829 269.652 120.057 267.908C120.285 266.165 121.1 264.551 122.368 263.333C124.952 261.101 126.131 263.333 127.937 266.417C129.743 269.501 131.687 272.235 129.178 274.454Z" fill="#EAA0CA"/>
<path d="M139.136 276.359C137.443 277.814 132.577 278.93 131.361 276.911C130.144 274.892 133.004 270.529 134.697 269.062C135.087 268.722 135.55 268.474 136.051 268.339C136.551 268.204 137.075 268.185 137.584 268.283C138.093 268.381 138.573 268.593 138.988 268.904C139.402 269.215 139.741 269.617 139.977 270.078C140.581 271.062 140.828 272.224 140.675 273.368C140.522 274.512 139.978 275.569 139.136 276.359ZM117.214 264.549C115.521 266.003 110.667 267.119 109.438 265.113C108.209 263.107 111.081 258.719 112.774 257.264C113.164 256.921 113.627 256.671 114.128 256.533C114.629 256.396 115.155 256.375 115.666 256.471C116.176 256.568 116.658 256.78 117.074 257.091C117.49 257.403 117.83 257.805 118.067 258.267C118.658 259.256 118.896 260.416 118.741 261.557C118.586 262.699 118.047 263.754 117.214 264.549ZM115.019 277.475C113.932 277.239 112.976 276.598 112.345 275.683C111.714 274.768 111.455 273.647 111.62 272.548C111.833 270.04 110.955 267.533 113.037 267.721C115.119 267.909 119.371 270.968 119.158 273.438C118.944 275.908 117.101 277.726 115.019 277.475Z" fill="#E0ADCD"/>
<path d="M141.983 257.026C143.526 253.704 145.344 255.171 148.141 257.026C149.547 258.073 150.544 259.578 150.958 261.281C151.373 262.984 151.179 264.779 150.411 266.354C148.869 269.677 145.395 270.893 142.56 269.063C139.726 267.232 140.466 260.349 141.983 257.026Z" fill="#EAA0CA"/>
<path d="M143.263 274.078C144.266 271.896 144.868 273.789 146.699 274.98C147.609 275.676 148.254 276.663 148.526 277.776C148.797 278.889 148.679 280.062 148.191 281.099C148.015 281.59 147.73 282.035 147.359 282.401C146.987 282.767 146.538 283.046 146.044 283.215C145.551 283.385 145.026 283.442 144.507 283.381C143.989 283.321 143.491 283.145 143.049 282.867C141.218 281.663 142.247 276.259 143.263 274.078ZM153.183 265.439C154.186 263.257 158.2 259.784 160.018 260.988C161.837 262.192 160.821 267.608 159.818 269.765C159.641 270.255 159.356 270.701 158.985 271.067C158.613 271.433 158.164 271.711 157.671 271.881C157.177 272.051 156.652 272.108 156.133 272.047C155.615 271.987 155.117 271.811 154.675 271.532C153.771 270.838 153.13 269.855 152.859 268.748C152.587 267.64 152.702 266.473 153.183 265.439ZM192.89 94.7862C191.535 92.893 193.241 92.893 194.834 91.2756C195.189 90.8999 195.625 90.6104 196.11 90.4295C196.594 90.2486 197.113 90.1809 197.628 90.2317C198.143 90.2826 198.639 90.4506 199.078 90.7228C199.518 90.995 199.889 91.3642 200.164 91.8022C200.822 92.7524 201.137 93.8982 201.057 95.0512C200.977 96.2042 200.508 97.2958 199.725 98.1464C198.157 99.7512 194.244 96.6794 192.89 94.7862ZM175.858 104.165C175.858 106.672 173.764 111.988 171.669 111.988C169.575 111.988 168.283 106.66 168.283 104.165C168.161 103.603 168.166 103.021 168.299 102.461C168.431 101.902 168.687 101.379 169.048 100.932C169.409 100.484 169.865 100.123 170.384 99.875C170.903 99.6269 171.471 99.4981 172.046 99.4981C172.621 99.4981 173.188 99.6269 173.707 99.875C174.226 100.123 174.682 100.484 175.043 100.932C175.404 101.379 175.66 101.902 175.792 102.461C175.925 103.021 175.93 103.603 175.808 104.165H175.858Z" fill="#E0ADCD"/>
<path d="M109.2 278.152C107.707 281.5 105.864 280.071 103.054 278.278C101.637 277.246 100.624 275.752 100.192 274.053C99.7589 272.355 99.9329 270.559 100.684 268.975C102.189 265.627 105.7 264.373 108.497 266.154C111.294 267.934 110.705 274.817 109.2 278.152Z" fill="#EAA0CA"/>
<path d="M111.746 136.85C111.746 139.358 110.491 138.029 108.359 138.029C107.294 137.851 106.327 137.301 105.629 136.476C104.931 135.652 104.548 134.608 104.548 133.528C104.548 132.448 104.931 131.404 105.629 130.579C106.327 129.755 107.294 129.205 108.359 129.027C110.454 129.027 111.746 134.355 111.746 136.85Z" fill="#E0ADCD"/>
<path d="M11.8141 383.119H576.186" stroke="#F43B3B" stroke-width="3" stroke-miterlimit="10"/>
</g>
<defs>
<clipPath id="clip0">
<rect width="588" height="385" fill="white"/>
</clipPath>
</defs>
</svg>
