<svg width="204" height="55" viewBox="0 0 204 55" fill="none" xmlns="http://www.w3.org/2000/svg">
<path d="M87.924 40.432C86.052 40.432 84.384 40.072 82.92 39.352C81.456 38.608 80.292 37.612 79.428 36.364C78.564 35.116 77.904 33.736 77.448 32.224C77.016 30.712 76.8 29.104 76.8 27.4C76.8 25.816 77.028 24.28 77.484 22.792C77.94 21.28 78.6 19.888 79.464 18.616C80.352 17.344 81.528 16.324 82.992 15.556C84.456 14.764 86.1 14.368 87.924 14.368C90.156 14.368 91.98 14.884 93.396 15.916C94.836 16.948 96.108 18.352 97.212 20.128L92.424 22.828C91.08 20.692 89.58 19.624 87.924 19.624C86.628 19.624 85.548 20.056 84.684 20.92C83.82 21.76 83.232 22.732 82.92 23.836C82.632 24.94 82.488 26.128 82.488 27.4C82.488 29.584 82.932 31.432 83.82 32.944C84.732 34.432 86.1 35.176 87.924 35.176C88.956 35.176 89.856 34.84 90.624 34.168C91.392 33.496 91.776 32.716 91.776 31.828V31.648H87.672V26.428H97.392V30.388C97.392 33.532 96.504 35.992 94.728 37.768C92.976 39.544 90.708 40.432 87.924 40.432ZM102.651 40V14.8H108.123V34.708H120.219V40H102.651ZM124.442 40V14.8H129.914V40H124.442ZM147.61 20.056V40H142.138V20.056H134.902V14.8H154.846V20.056H147.61ZM168.803 40.36C166.907 40.36 165.238 39.988 163.799 39.244C162.382 38.476 161.278 37.456 160.486 36.184C159.694 34.912 159.106 33.544 158.722 32.08C158.362 30.616 158.182 29.056 158.182 27.4C158.182 25.888 158.374 24.412 158.758 22.972C159.142 21.508 159.73 20.128 160.522 18.832C161.314 17.512 162.418 16.456 163.835 15.664C165.275 14.848 166.931 14.44 168.803 14.44C171.083 14.44 173.027 15.028 174.635 16.204C176.243 17.38 177.383 18.808 178.055 20.488L173.159 22.684C172.463 21.652 171.791 20.896 171.143 20.416C170.519 19.936 169.739 19.696 168.803 19.696C167.915 19.696 167.135 19.936 166.462 20.416C165.79 20.872 165.275 21.496 164.915 22.288C164.555 23.056 164.291 23.872 164.122 24.736C163.954 25.576 163.87 26.464 163.87 27.4C163.87 28.672 164.026 29.872 164.339 31C164.675 32.128 165.227 33.1 165.995 33.916C166.787 34.708 167.723 35.104 168.803 35.104C170.363 35.104 171.791 34.024 173.087 31.864L178.091 33.736C176.051 38.152 172.955 40.36 168.803 40.36ZM183.014 40V14.8H201.122V19.984H188.486V24.412H195.542V29.596H188.486V34.78H201.842V40H183.014Z" fill="#BF5B0B"/>
<path d="M44.2292 38.7291C45.1458 37.1249 45.8333 35.2916 45.8333 33.2291C45.8333 27.4999 41.25 22.9166 35.5208 22.9166C29.7917 22.9166 25.2083 27.4999 25.2083 33.2291C25.2083 38.9583 29.7917 43.5416 35.5208 43.5416C37.5833 43.5416 39.4167 42.8541 41.0208 41.9374L48.3542 49.2708L51.5625 46.0624L44.2292 38.7291ZM35.5208 38.9583C32.3125 38.9583 29.7917 36.4374 29.7917 33.2291C29.7917 30.0208 32.3125 27.4999 35.5208 27.4999C38.7292 27.4999 41.25 30.0208 41.25 33.2291C41.25 36.4374 38.7292 38.9583 35.5208 38.9583ZM27.5 45.8333V50.4166C14.85 50.4166 4.58333 40.1499 4.58333 27.4999C4.58333 14.8499 14.85 4.58325 27.5 4.58325C38.5917 4.58325 47.8271 12.4666 49.9583 22.9166H45.2146C44.4998 20.1479 43.1473 17.5848 41.2652 15.432C39.3831 13.2793 37.0235 11.5967 34.375 10.5187V11.4583C34.375 13.9791 32.3125 16.0416 29.7917 16.0416H25.2083V20.6249C25.2083 21.8853 24.1771 22.9166 22.9167 22.9166H18.3333V27.4999H22.9167V34.3749H20.625L9.64791 23.3978C9.35 24.727 9.16666 26.0791 9.16666 27.4999C9.16666 37.6062 17.3937 45.8333 27.5 45.8333Z" fill="#773907"/>
</svg>